<?xml version="1.0" encoding="UTF-8"?>
<svg xmlns="http://www.w3.org/2000/svg" width="580" height="690" viewBox="0 0 580 690" role="img" aria-labelledby="title desc">
  <metadata>Pack with Love - Icon Mark - White_Reverse. Locked palette: Navy #0F3A5D, Coral #FF6868, Warm Gold #DBB978, Cream #FFF8F1.</metadata>

  <title id="title">PackWithLove Icon</title>
  <desc id="desc">Design-faithful vector trace based on the approved Pack with Love master artwork.</desc>
  <path id="gold" d="M 80.00,462.00 L 58.00,495.00 L 44.00,521.00 L 37.00,543.00 L 36.00,560.00 L 37.00,561.00 L 38.00,571.00 L 41.00,579.00 L 46.00,587.00 L 53.00,594.00 L 65.00,601.00 L 74.00,604.00 L 78.00,604.00 L 79.00,605.00 L 100.00,605.00 L 92.00,589.00 L 78.00,587.00 L 70.00,583.00 L 63.00,577.00 L 57.00,568.00 L 54.00,558.00 L 54.00,545.00 L 59.00,526.00 L 67.00,510.00 L 79.00,492.00 Z M 242.00,141.00 L 233.00,144.00 L 219.00,151.00 L 206.00,159.00 L 192.00,170.00 L 173.00,190.00 L 162.00,205.00 L 150.00,226.00 L 138.00,254.00 L 127.00,292.00 L 127.00,296.00 L 122.00,317.00 L 120.00,337.00 L 119.00,338.00 L 115.00,379.00 L 125.00,380.00 L 126.00,381.00 L 135.00,381.00 L 141.00,329.00 L 142.00,328.00 L 142.00,323.00 L 143.00,322.00 L 143.00,318.00 L 144.00,317.00 L 144.00,313.00 L 145.00,312.00 L 145.00,308.00 L 147.00,303.00 L 150.00,286.00 L 161.00,251.00 L 177.00,215.00 L 193.00,189.00 L 204.00,175.00 L 227.00,152.00 Z M 271.00,93.00 L 271.00,113.00 L 287.00,111.00 L 287.00,98.00 L 288.00,97.00 L 288.00,91.00 L 290.00,87.00 L 290.00,84.00 L 296.00,73.00 L 307.00,62.00 L 314.00,58.00 L 327.00,54.00 L 347.00,54.00 L 355.00,56.00 L 367.00,62.00 L 380.00,76.00 L 384.00,85.00 L 385.00,93.00 L 386.00,94.00 L 386.00,109.00 L 402.00,112.00 L 402.00,91.00 L 399.00,78.00 L 393.00,65.00 L 387.00,57.00 L 376.00,47.00 L 365.00,41.00 L 352.00,37.00 L 345.00,37.00 L 344.00,36.00 L 324.00,37.00 L 310.00,41.00 L 297.00,48.00 L 287.00,57.00 L 278.00,70.00 L 274.00,80.00 Z" fill="#FFFFFF" fill-rule="evenodd"/><path id="navy" d="M 80.00,525.00 L 82.00,526.00 L 83.00,548.00 L 84.00,549.00 L 84.00,555.00 L 87.00,568.00 L 86.00,570.00 L 80.00,568.00 L 74.00,562.00 L 72.00,557.00 L 72.00,545.00 L 76.00,532.00 Z M 79.00,462.00 L 81.00,463.00 L 81.00,491.00 L 69.00,509.00 L 61.00,525.00 L 56.00,541.00 L 55.00,554.00 L 56.00,555.00 L 57.00,564.00 L 60.00,571.00 L 69.00,581.00 L 80.00,586.00 L 92.00,587.00 L 94.00,589.00 L 94.00,591.00 L 101.00,604.00 L 100.00,606.00 L 96.00,606.00 L 95.00,607.00 L 85.00,607.00 L 84.00,606.00 L 73.00,605.00 L 64.00,602.00 L 55.00,597.00 L 46.00,589.00 L 40.00,580.00 L 35.00,565.00 L 35.00,546.00 L 39.00,530.00 L 43.00,520.00 L 59.00,491.00 Z M 99.00,451.00 L 107.00,452.00 L 108.00,453.00 L 116.00,453.00 L 117.00,454.00 L 128.00,454.00 L 132.00,456.00 L 131.00,504.00 L 132.00,505.00 L 132.00,539.00 L 133.00,540.00 L 134.00,567.00 L 135.00,568.00 L 135.00,577.00 L 136.00,578.00 L 137.00,590.00 L 142.00,610.00 L 147.00,620.00 L 146.00,623.00 L 141.00,621.00 L 129.00,612.00 L 119.00,601.00 L 112.00,590.00 L 104.00,569.00 L 102.00,555.00 L 100.00,549.00 L 99.00,532.00 L 98.00,531.00 L 98.00,515.00 L 97.00,514.00 L 97.00,467.00 L 98.00,466.00 L 98.00,452.00 Z M 493.00,411.00 L 494.00,420.00 L 495.00,421.00 L 495.00,428.00 L 496.00,429.00 L 497.00,452.00 L 498.00,453.00 L 498.00,469.00 L 499.00,470.00 L 499.00,497.00 L 500.00,498.00 L 499.00,573.00 L 498.00,574.00 L 498.00,582.00 L 495.00,594.00 L 490.00,603.00 L 482.00,610.00 L 473.00,614.00 L 465.00,615.00 L 464.00,616.00 L 451.00,617.00 L 450.00,618.00 L 440.00,618.00 L 439.00,619.00 L 428.00,619.00 L 427.00,620.00 L 387.00,621.00 L 386.00,622.00 L 293.00,622.00 L 292.00,621.00 L 262.00,620.00 L 261.00,619.00 L 252.00,619.00 L 251.00,618.00 L 241.00,617.00 L 229.00,613.00 L 220.00,605.00 L 214.00,592.00 L 213.00,581.00 L 212.00,580.00 L 211.00,513.00 L 212.00,512.00 L 213.00,463.00 L 214.00,462.00 L 216.00,432.00 L 217.00,431.00 L 219.00,414.00 L 225.00,407.00 L 227.00,406.00 L 486.00,405.00 Z M 101.00,396.00 L 123.00,398.00 L 124.00,399.00 L 133.00,399.00 L 134.00,400.00 L 133.00,433.00 L 131.00,438.00 L 103.00,435.00 L 96.00,432.00 L 95.00,430.00 L 96.00,403.00 Z M 228.00,387.00 L 233.00,379.00 L 246.00,367.00 L 259.00,360.00 L 276.00,355.00 L 286.00,354.00 L 287.00,353.00 L 294.00,353.00 L 295.00,352.00 L 321.00,351.00 L 322.00,350.00 L 389.00,349.00 L 390.00,350.00 L 412.00,350.00 L 413.00,351.00 L 433.00,352.00 L 457.00,358.00 L 467.00,363.00 L 474.00,368.00 L 483.00,378.00 L 488.00,389.00 L 487.00,390.00 L 229.00,390.00 Z M 221.00,368.00 L 211.00,385.00 L 203.00,413.00 L 201.00,432.00 L 200.00,433.00 L 200.00,441.00 L 199.00,442.00 L 198.00,467.00 L 197.00,468.00 L 197.00,487.00 L 196.00,488.00 L 196.00,575.00 L 197.00,576.00 L 197.00,586.00 L 202.00,606.00 L 206.00,613.00 L 213.00,621.00 L 220.00,626.00 L 232.00,631.00 L 245.00,634.00 L 262.00,635.00 L 263.00,636.00 L 305.00,637.00 L 306.00,638.00 L 405.00,637.00 L 406.00,636.00 L 424.00,636.00 L 425.00,635.00 L 449.00,634.00 L 450.00,633.00 L 464.00,632.00 L 477.00,629.00 L 491.00,623.00 L 504.00,611.00 L 512.00,592.00 L 513.00,580.00 L 514.00,579.00 L 514.00,568.00 L 515.00,567.00 L 515.00,482.00 L 514.00,481.00 L 513.00,442.00 L 512.00,441.00 L 512.00,431.00 L 511.00,430.00 L 511.00,421.00 L 510.00,420.00 L 509.00,407.00 L 508.00,406.00 L 508.00,401.00 L 504.00,385.00 L 498.00,372.00 L 487.00,358.00 L 475.00,349.00 L 465.00,344.00 L 440.00,337.00 L 425.00,336.00 L 424.00,335.00 L 411.00,335.00 L 410.00,334.00 L 323.00,334.00 L 322.00,335.00 L 306.00,335.00 L 305.00,336.00 L 286.00,337.00 L 285.00,338.00 L 274.00,339.00 L 262.00,342.00 L 241.00,351.00 L 231.00,358.00 Z M 355.00,183.00 L 349.00,184.00 L 346.00,188.00 L 346.00,219.00 L 340.00,221.00 L 332.00,221.00 L 331.00,220.00 L 329.00,221.00 L 318.00,221.00 L 315.00,224.00 L 314.00,230.00 L 316.00,234.00 L 319.00,236.00 L 344.00,236.00 L 346.00,238.00 L 346.00,291.00 L 348.00,294.00 L 353.00,296.00 L 357.00,295.00 L 361.00,290.00 L 361.00,237.00 L 362.00,236.00 L 387.00,236.00 L 392.00,232.00 L 392.00,225.00 L 388.00,221.00 L 378.00,221.00 L 377.00,220.00 L 366.00,221.00 L 361.00,219.00 L 361.00,189.00 Z M 243.00,139.00 L 244.00,140.00 L 243.00,142.00 L 231.00,150.00 L 208.00,172.00 L 196.00,187.00 L 178.00,216.00 L 164.00,247.00 L 152.00,284.00 L 149.00,300.00 L 147.00,305.00 L 145.00,319.00 L 144.00,320.00 L 143.00,330.00 L 142.00,331.00 L 136.00,382.00 L 134.00,383.00 L 133.00,382.00 L 116.00,381.00 L 114.00,379.00 L 116.00,350.00 L 117.00,349.00 L 119.00,328.00 L 120.00,327.00 L 121.00,315.00 L 122.00,314.00 L 125.00,295.00 L 131.00,271.00 L 143.00,238.00 L 155.00,214.00 L 173.00,188.00 L 195.00,166.00 L 207.00,157.00 L 222.00,148.00 Z M 283.00,140.00 L 311.00,131.00 L 327.00,129.00 L 328.00,128.00 L 336.00,128.00 L 337.00,127.00 L 373.00,127.00 L 374.00,128.00 L 383.00,128.00 L 384.00,129.00 L 400.00,131.00 L 421.00,137.00 L 443.00,147.00 L 466.00,163.00 L 487.00,185.00 L 498.00,201.00 L 506.00,216.00 L 506.00,218.00 L 512.00,230.00 L 520.00,255.00 L 520.00,259.00 L 522.00,263.00 L 522.00,267.00 L 524.00,272.00 L 526.00,287.00 L 528.00,293.00 L 529.00,304.00 L 530.00,305.00 L 532.00,325.00 L 533.00,326.00 L 536.00,362.00 L 537.00,363.00 L 537.00,372.00 L 538.00,373.00 L 540.00,410.00 L 541.00,411.00 L 542.00,445.00 L 543.00,446.00 L 543.00,469.00 L 544.00,470.00 L 544.00,504.00 L 545.00,505.00 L 544.00,565.00 L 543.00,566.00 L 542.00,586.00 L 541.00,587.00 L 539.00,601.00 L 536.00,610.00 L 527.00,625.00 L 521.00,631.00 L 509.00,639.00 L 493.00,645.00 L 475.00,648.00 L 474.00,649.00 L 451.00,651.00 L 450.00,652.00 L 422.00,653.00 L 421.00,654.00 L 359.00,655.00 L 358.00,656.00 L 309.00,656.00 L 308.00,655.00 L 251.00,654.00 L 250.00,653.00 L 223.00,651.00 L 222.00,650.00 L 204.00,647.00 L 191.00,642.00 L 181.00,636.00 L 169.00,624.00 L 163.00,614.00 L 156.00,593.00 L 154.00,577.00 L 153.00,576.00 L 153.00,569.00 L 152.00,568.00 L 151.00,542.00 L 150.00,541.00 L 150.00,518.00 L 149.00,517.00 L 149.00,462.00 L 150.00,461.00 L 151.00,415.00 L 152.00,414.00 L 152.00,401.00 L 153.00,400.00 L 153.00,387.00 L 154.00,386.00 L 155.00,367.00 L 156.00,366.00 L 157.00,351.00 L 158.00,350.00 L 162.00,321.00 L 171.00,282.00 L 175.00,272.00 L 176.00,266.00 L 178.00,263.00 L 180.00,255.00 L 187.00,240.00 L 187.00,238.00 L 195.00,222.00 L 211.00,197.00 L 219.00,187.00 L 245.00,162.00 L 263.00,150.00 Z M 305.00,96.00 L 311.00,83.00 L 319.00,76.00 L 330.00,72.00 L 344.00,72.00 L 353.00,75.00 L 364.00,85.00 L 368.00,96.00 L 368.00,107.00 L 367.00,108.00 L 319.00,108.00 L 318.00,109.00 L 306.00,109.00 L 305.00,108.00 Z M 270.00,91.00 L 274.00,76.00 L 280.00,64.00 L 295.00,48.00 L 311.00,39.00 L 321.00,36.00 L 325.00,36.00 L 326.00,35.00 L 349.00,35.00 L 361.00,38.00 L 372.00,43.00 L 383.00,51.00 L 391.00,60.00 L 395.00,66.00 L 401.00,80.00 L 403.00,88.00 L 403.00,94.00 L 404.00,95.00 L 404.00,112.00 L 403.00,113.00 L 398.00,113.00 L 392.00,111.00 L 387.00,111.00 L 385.00,109.00 L 385.00,100.00 L 384.00,99.00 L 383.00,87.00 L 377.00,74.00 L 370.00,66.00 L 363.00,61.00 L 354.00,57.00 L 346.00,56.00 L 345.00,55.00 L 324.00,56.00 L 315.00,59.00 L 304.00,66.00 L 296.00,75.00 L 292.00,83.00 L 289.00,94.00 L 289.00,110.00 L 287.00,112.00 L 277.00,113.00 L 276.00,114.00 L 270.00,114.00 L 269.00,113.00 Z M 310.00,21.00 L 292.00,29.00 L 281.00,37.00 L 272.00,46.00 L 262.00,61.00 L 257.00,73.00 L 254.00,85.00 L 254.00,92.00 L 253.00,93.00 L 253.00,118.00 L 234.00,124.00 L 214.00,133.00 L 196.00,144.00 L 183.00,154.00 L 157.00,181.00 L 149.00,192.00 L 137.00,212.00 L 124.00,240.00 L 112.00,277.00 L 108.00,298.00 L 107.00,299.00 L 107.00,303.00 L 106.00,304.00 L 103.00,328.00 L 102.00,329.00 L 100.00,353.00 L 99.00,354.00 L 99.00,363.00 L 98.00,364.00 L 98.00,376.00 L 96.00,380.00 L 90.00,383.00 L 85.00,388.00 L 81.00,396.00 L 79.00,404.00 L 78.00,434.00 L 75.00,437.00 L 43.00,485.00 L 27.00,515.00 L 22.00,528.00 L 19.00,541.00 L 19.00,547.00 L 18.00,548.00 L 18.00,564.00 L 19.00,565.00 L 19.00,570.00 L 21.00,578.00 L 25.00,588.00 L 32.00,599.00 L 42.00,609.00 L 55.00,617.00 L 66.00,621.00 L 74.00,622.00 L 75.00,623.00 L 82.00,623.00 L 83.00,624.00 L 96.00,624.00 L 97.00,623.00 L 104.00,623.00 L 105.00,622.00 L 114.00,621.00 L 125.00,631.00 L 134.00,637.00 L 150.00,645.00 L 171.00,651.00 L 175.00,654.00 L 192.00,662.00 L 216.00,668.00 L 240.00,670.00 L 241.00,671.00 L 280.00,672.00 L 281.00,673.00 L 380.00,673.00 L 381.00,672.00 L 412.00,672.00 L 413.00,671.00 L 430.00,671.00 L 431.00,670.00 L 456.00,669.00 L 457.00,668.00 L 479.00,666.00 L 480.00,665.00 L 501.00,661.00 L 510.00,658.00 L 524.00,651.00 L 537.00,641.00 L 543.00,634.00 L 553.00,616.00 L 559.00,594.00 L 559.00,589.00 L 560.00,588.00 L 561.00,571.00 L 562.00,570.00 L 562.00,552.00 L 563.00,551.00 L 563.00,487.00 L 562.00,486.00 L 562.00,458.00 L 561.00,457.00 L 561.00,437.00 L 560.00,436.00 L 558.00,392.00 L 557.00,391.00 L 557.00,380.00 L 556.00,379.00 L 554.00,348.00 L 553.00,347.00 L 553.00,339.00 L 552.00,338.00 L 552.00,330.00 L 551.00,329.00 L 551.00,322.00 L 550.00,321.00 L 547.00,293.00 L 546.00,292.00 L 543.00,271.00 L 535.00,239.00 L 533.00,236.00 L 533.00,233.00 L 527.00,217.00 L 518.00,198.00 L 509.00,183.00 L 496.00,166.00 L 480.00,150.00 L 458.00,134.00 L 439.00,124.00 L 420.00,117.00 L 420.00,89.00 L 419.00,88.00 L 419.00,83.00 L 416.00,71.00 L 409.00,56.00 L 405.00,50.00 L 392.00,36.00 L 373.00,24.00 L 352.00,18.00 L 330.00,17.00 L 329.00,18.00 L 323.00,18.00 Z" fill="#FFFFFF" fill-rule="evenodd"/><path id="coral" d="M 292.00,447.00 L 283.00,455.00 L 276.00,468.00 L 275.00,472.00 L 275.00,490.00 L 279.00,504.00 L 292.00,527.00 L 315.00,554.00 L 346.00,581.00 L 353.00,585.00 L 361.00,585.00 L 385.00,566.00 L 407.00,544.00 L 426.00,519.00 L 434.00,504.00 L 439.00,485.00 L 438.00,472.00 L 435.00,463.00 L 429.00,454.00 L 419.00,446.00 L 408.00,442.00 L 398.00,441.00 L 397.00,442.00 L 391.00,442.00 L 384.00,444.00 L 375.00,449.00 L 367.00,456.00 L 358.00,469.00 L 356.00,470.00 L 348.00,458.00 L 343.00,453.00 L 331.00,445.00 L 322.00,442.00 L 315.00,442.00 L 314.00,441.00 L 304.00,442.00 Z M 46.00,148.00 L 47.00,157.00 L 52.00,161.00 L 75.00,168.00 L 78.00,170.00 L 99.00,177.00 L 107.00,177.00 L 112.00,172.00 L 113.00,168.00 L 112.00,163.00 L 108.00,159.00 L 98.00,155.00 L 55.00,141.00 L 51.00,142.00 Z M 82.00,81.00 L 80.00,86.00 L 82.00,92.00 L 126.00,131.00 L 133.00,132.00 L 140.00,127.00 L 141.00,124.00 L 140.00,117.00 L 96.00,78.00 L 94.00,77.00 L 87.00,77.00 Z M 147.00,21.00 L 141.00,27.00 L 141.00,34.00 L 145.00,42.00 L 146.00,47.00 L 166.00,97.00 L 170.00,100.00 L 177.00,100.00 L 181.00,98.00 L 184.00,92.00 L 181.00,80.00 L 177.00,72.00 L 176.00,67.00 L 168.00,49.00 L 167.00,44.00 L 159.00,24.00 L 155.00,21.00 Z" fill="#FFFFFF" fill-rule="evenodd"/>
</svg>
