<?xml version="1.0" encoding="UTF-8"?>
<svg xmlns="http://www.w3.org/2000/svg" width="586" height="915" viewBox="0 0 586 915" role="img" aria-labelledby="title desc">
  <metadata>Pack with Love - Stacked - Full_Color. Locked palette: Navy #0F3A5D, Coral #FF6868, Warm Gold #DBB978, Cream #FFF8F1.</metadata>

  <title id="title">PackWithLove Stacked</title>
  <desc id="desc">Design-faithful vector trace based on the approved Pack with Love master artwork.</desc>
  <path id="peach" d="M 84.00,492.00 L 84.00,496.00 L 87.00,499.00 L 92.00,500.00 L 95.00,502.00 L 103.00,504.00 L 108.00,504.00 L 113.00,506.00 L 124.00,507.00 L 130.00,509.00 L 145.00,510.00 L 146.00,511.00 L 158.00,511.00 L 159.00,512.00 L 166.00,512.00 L 167.00,513.00 L 187.00,513.00 L 188.00,514.00 L 206.00,514.00 L 207.00,515.00 L 234.00,515.00 L 235.00,516.00 L 312.00,516.00 L 313.00,515.00 L 339.00,515.00 L 340.00,514.00 L 352.00,514.00 L 353.00,513.00 L 369.00,513.00 L 370.00,512.00 L 392.00,511.00 L 393.00,510.00 L 409.00,509.00 L 410.00,508.00 L 433.00,505.00 L 451.00,499.00 L 454.00,496.00 L 454.00,493.00 L 448.00,488.00 L 427.00,483.00 L 422.00,483.00 L 417.00,487.00 L 407.00,491.00 L 397.00,492.00 L 396.00,493.00 L 391.00,493.00 L 390.00,492.00 L 389.00,494.00 L 385.00,494.00 L 384.00,495.00 L 375.00,495.00 L 374.00,494.00 L 372.00,496.00 L 356.00,497.00 L 355.00,498.00 L 344.00,498.00 L 343.00,499.00 L 329.00,498.00 L 328.00,500.00 L 314.00,500.00 L 313.00,499.00 L 312.00,501.00 L 297.00,501.00 L 293.00,500.00 L 292.00,502.00 L 274.00,502.00 L 273.00,503.00 L 220.00,503.00 L 219.00,502.00 L 201.00,501.00 L 200.00,499.00 L 197.00,500.00 L 195.00,498.00 L 194.00,499.00 L 187.00,498.00 L 186.00,496.00 L 184.00,498.00 L 183.00,497.00 L 179.00,497.00 L 178.00,495.00 L 175.00,496.00 L 174.00,494.00 L 173.00,495.00 L 169.00,495.00 L 159.00,491.00 L 158.00,489.00 L 156.00,490.00 L 150.00,487.00 L 147.00,483.00 L 143.00,482.00 L 140.00,479.00 L 139.00,480.00 L 127.00,480.00 L 126.00,481.00 L 119.00,481.00 L 118.00,482.00 L 103.00,484.00 L 90.00,488.00 Z" fill="#FFF8F1" fill-rule="evenodd"/><path id="gold" d="M 108.00,358.00 L 101.00,370.00 L 101.00,372.00 L 95.00,381.00 L 95.00,383.00 L 91.00,388.00 L 83.00,405.00 L 83.00,409.00 L 79.00,421.00 L 79.00,435.00 L 81.00,439.00 L 81.00,442.00 L 83.00,444.00 L 83.00,447.00 L 85.00,448.00 L 94.00,459.00 L 105.00,463.00 L 107.00,465.00 L 124.00,466.00 L 125.00,465.00 L 129.00,465.00 L 126.00,456.00 L 124.00,455.00 L 123.00,456.00 L 114.00,456.00 L 112.00,454.00 L 108.00,454.00 L 99.00,448.00 L 94.00,443.00 L 90.00,432.00 L 90.00,414.00 L 92.00,412.00 L 93.00,404.00 L 98.00,396.00 L 98.00,393.00 L 100.00,391.00 L 100.00,389.00 L 102.00,388.00 L 106.00,381.00 L 106.00,379.00 L 108.00,378.00 L 108.00,376.00 L 110.00,374.00 L 110.00,358.00 Z M 186.00,116.00 L 169.00,127.00 L 161.00,135.00 L 158.00,140.00 L 155.00,142.00 L 143.00,161.00 L 143.00,163.00 L 139.00,169.00 L 135.00,182.00 L 133.00,185.00 L 133.00,188.00 L 131.00,191.00 L 125.00,215.00 L 125.00,221.00 L 123.00,226.00 L 123.00,235.00 L 121.00,241.00 L 121.00,261.00 L 120.00,262.00 L 120.00,275.00 L 119.00,276.00 L 119.00,295.00 L 120.00,296.00 L 119.00,298.00 L 119.00,306.00 L 120.00,308.00 L 123.00,309.00 L 126.00,308.00 L 126.00,277.00 L 127.00,276.00 L 127.00,268.00 L 128.00,267.00 L 128.00,251.00 L 130.00,244.00 L 132.00,224.00 L 134.00,220.00 L 134.00,215.00 L 138.00,203.00 L 138.00,198.00 L 140.00,196.00 L 140.00,193.00 L 142.00,190.00 L 144.00,182.00 L 148.00,172.00 L 152.00,166.00 L 156.00,155.00 L 170.00,134.00 Z M 235.00,85.00 L 240.00,85.00 L 245.00,82.00 L 246.00,67.00 L 248.00,64.00 L 248.00,59.00 L 250.00,58.00 L 250.00,56.00 L 254.00,50.00 L 262.00,42.00 L 275.00,37.00 L 292.00,37.00 L 306.00,43.00 L 311.00,48.00 L 317.00,59.00 L 317.00,62.00 L 319.00,66.00 L 319.00,74.00 L 322.00,79.00 L 329.00,79.00 L 329.00,71.00 L 328.00,70.00 L 328.00,64.00 L 326.00,60.00 L 326.00,56.00 L 324.00,54.00 L 324.00,52.00 L 321.00,47.00 L 319.00,46.00 L 311.00,36.00 L 303.00,31.00 L 299.00,31.00 L 294.00,28.00 L 279.00,28.00 L 278.00,29.00 L 275.00,28.00 L 274.00,29.00 L 266.00,30.00 L 252.00,39.00 L 247.00,44.00 L 241.00,54.00 L 237.00,65.00 L 238.00,67.00 L 235.00,76.00 Z" fill="#DBB978" fill-rule="evenodd"/><path id="navy" d="M 95.00,807.00 L 93.00,809.00 L 93.00,852.00 L 95.00,854.00 L 99.00,855.00 L 102.00,853.00 L 101.00,851.00 L 103.00,850.00 L 103.00,810.00 L 101.00,807.00 Z M 19.00,808.00 L 18.00,813.00 L 26.00,837.00 L 28.00,840.00 L 30.00,849.00 L 33.00,854.00 L 37.00,855.00 L 41.00,853.00 L 49.00,829.00 L 51.00,827.00 L 53.00,828.00 L 61.00,852.00 L 65.00,855.00 L 67.00,855.00 L 71.00,852.00 L 78.00,829.00 L 80.00,826.00 L 80.00,823.00 L 84.00,814.00 L 84.00,809.00 L 82.00,807.00 L 80.00,808.00 L 77.00,807.00 L 75.00,809.00 L 71.00,821.00 L 71.00,824.00 L 66.00,836.00 L 64.00,835.00 L 56.00,809.00 L 54.00,807.00 L 47.00,808.00 L 38.00,835.00 L 35.00,834.00 L 28.00,812.00 L 28.00,809.00 L 25.00,807.00 Z M 123.00,791.00 L 119.00,794.00 L 119.00,806.00 L 112.00,808.00 L 111.00,809.00 L 111.00,814.00 L 112.00,815.00 L 116.00,815.00 L 119.00,817.00 L 119.00,844.00 L 122.00,851.00 L 130.00,855.00 L 136.00,855.00 L 141.00,853.00 L 144.00,850.00 L 144.00,847.00 L 142.00,844.00 L 138.00,844.00 L 133.00,846.00 L 129.00,842.00 L 129.00,816.00 L 130.00,815.00 L 141.00,815.00 L 143.00,813.00 L 143.00,809.00 L 141.00,807.00 L 130.00,807.00 L 129.00,806.00 L 129.00,794.00 L 128.00,792.00 Z M 96.00,786.00 L 93.00,788.00 L 92.00,794.00 L 94.00,797.00 L 99.00,798.00 L 103.00,795.00 L 104.00,791.00 L 102.00,787.00 Z M 155.00,783.00 L 152.00,787.00 L 152.00,804.00 L 153.00,805.00 L 152.00,808.00 L 152.00,839.00 L 153.00,840.00 L 152.00,842.00 L 153.00,844.00 L 152.00,850.00 L 156.00,855.00 L 158.00,855.00 L 162.00,852.00 L 162.00,824.00 L 167.00,817.00 L 175.00,815.00 L 178.00,816.00 L 182.00,821.00 L 182.00,826.00 L 183.00,827.00 L 182.00,831.00 L 182.00,850.00 L 184.00,854.00 L 188.00,855.00 L 192.00,852.00 L 192.00,819.00 L 191.00,816.00 L 186.00,809.00 L 178.00,806.00 L 170.00,807.00 L 163.00,811.00 L 162.00,810.00 L 162.00,786.00 L 159.00,783.00 Z M 217.00,640.00 L 221.00,643.00 L 223.00,649.00 L 223.00,654.00 L 217.00,673.00 L 206.00,696.00 L 202.00,702.00 L 193.00,712.00 L 189.00,713.00 L 185.00,706.00 L 185.00,693.00 L 190.00,672.00 L 198.00,655.00 L 202.00,649.00 L 210.00,641.00 Z M 485.00,696.00 L 482.00,691.00 L 477.00,690.00 L 473.00,692.00 L 468.00,697.00 L 459.00,702.00 L 447.00,703.00 L 440.00,701.00 L 425.00,692.00 L 410.00,677.00 L 399.00,663.00 L 399.00,661.00 L 424.00,639.00 L 450.00,614.00 L 451.00,606.00 L 448.00,602.00 L 443.00,600.00 L 437.00,602.00 L 389.00,647.00 L 387.00,646.00 L 387.00,641.00 L 388.00,640.00 L 392.00,616.00 L 394.00,611.00 L 394.00,607.00 L 396.00,603.00 L 402.00,577.00 L 411.00,551.00 L 411.00,544.00 L 410.00,542.00 L 406.00,539.00 L 399.00,539.00 L 394.00,543.00 L 392.00,547.00 L 384.00,573.00 L 375.00,609.00 L 366.00,657.00 L 343.00,688.00 L 325.00,706.00 L 315.00,712.00 L 305.00,713.00 L 302.00,712.00 L 295.00,704.00 L 293.00,696.00 L 293.00,680.00 L 294.00,679.00 L 293.00,674.00 L 295.00,673.00 L 298.00,661.00 L 303.00,650.00 L 313.00,639.00 L 317.00,639.00 L 321.00,644.00 L 321.00,649.00 L 319.00,657.00 L 323.00,662.00 L 325.00,663.00 L 330.00,662.00 L 334.00,657.00 L 335.00,654.00 L 335.00,650.00 L 334.00,649.00 L 335.00,640.00 L 332.00,632.00 L 327.00,627.00 L 321.00,624.00 L 309.00,624.00 L 300.00,628.00 L 291.00,637.00 L 281.00,654.00 L 278.00,662.00 L 276.00,673.00 L 267.00,689.00 L 255.00,707.00 L 247.00,713.00 L 245.00,713.00 L 242.00,710.00 L 241.00,707.00 L 241.00,702.00 L 240.00,701.00 L 240.00,680.00 L 241.00,679.00 L 242.00,665.00 L 248.00,640.00 L 248.00,633.00 L 243.00,628.00 L 237.00,628.00 L 230.00,634.00 L 225.00,628.00 L 219.00,625.00 L 212.00,624.00 L 204.00,626.00 L 197.00,630.00 L 187.00,640.00 L 180.00,651.00 L 170.00,677.00 L 170.00,681.00 L 168.00,687.00 L 168.00,699.00 L 167.00,700.00 L 168.00,701.00 L 169.00,713.00 L 173.00,722.00 L 180.00,728.00 L 186.00,730.00 L 192.00,730.00 L 198.00,728.00 L 204.00,724.00 L 212.00,715.00 L 221.00,699.00 L 223.00,700.00 L 223.00,705.00 L 226.00,717.00 L 228.00,721.00 L 235.00,728.00 L 241.00,730.00 L 245.00,730.00 L 255.00,726.00 L 264.00,718.00 L 270.00,710.00 L 274.00,702.00 L 276.00,701.00 L 279.00,711.00 L 282.00,717.00 L 285.00,719.00 L 285.00,721.00 L 291.00,726.00 L 301.00,730.00 L 311.00,730.00 L 321.00,727.00 L 334.00,719.00 L 352.00,701.00 L 356.00,695.00 L 361.00,691.00 L 362.00,692.00 L 362.00,698.00 L 361.00,699.00 L 359.00,729.00 L 363.00,734.00 L 370.00,735.00 L 374.00,733.00 L 377.00,728.00 L 377.00,719.00 L 378.00,718.00 L 378.00,708.00 L 379.00,707.00 L 381.00,684.00 L 382.00,683.00 L 382.00,679.00 L 385.00,676.00 L 387.00,677.00 L 397.00,690.00 L 414.00,706.00 L 421.00,711.00 L 431.00,716.00 L 441.00,719.00 L 456.00,719.00 L 470.00,714.00 L 476.00,710.00 L 483.00,703.00 Z M 154.00,540.00 L 163.00,548.00 L 167.00,554.00 L 170.00,563.00 L 170.00,581.00 L 169.00,582.00 L 169.00,586.00 L 166.00,596.00 L 161.00,607.00 L 146.00,629.00 L 129.00,646.00 L 119.00,654.00 L 103.00,664.00 L 90.00,670.00 L 85.00,671.00 L 84.00,670.00 L 84.00,662.00 L 85.00,661.00 L 85.00,653.00 L 86.00,652.00 L 86.00,644.00 L 87.00,643.00 L 90.00,615.00 L 91.00,614.00 L 93.00,597.00 L 96.00,586.00 L 97.00,575.00 L 99.00,570.00 L 104.00,541.00 L 109.00,538.00 L 123.00,536.00 L 124.00,535.00 L 139.00,535.00 Z M 158.00,523.00 L 149.00,520.00 L 129.00,518.00 L 128.00,519.00 L 113.00,520.00 L 93.00,526.00 L 74.00,535.00 L 54.00,548.00 L 36.00,563.00 L 26.00,575.00 L 26.00,582.00 L 27.00,584.00 L 31.00,587.00 L 37.00,587.00 L 52.00,572.00 L 65.00,561.00 L 82.00,550.00 L 84.00,551.00 L 81.00,563.00 L 79.00,578.00 L 78.00,579.00 L 78.00,584.00 L 77.00,585.00 L 77.00,590.00 L 74.00,603.00 L 74.00,609.00 L 72.00,616.00 L 72.00,622.00 L 71.00,623.00 L 71.00,629.00 L 69.00,637.00 L 69.00,645.00 L 68.00,646.00 L 68.00,653.00 L 67.00,654.00 L 66.00,673.00 L 64.00,676.00 L 57.00,678.00 L 54.00,683.00 L 54.00,686.00 L 57.00,690.00 L 64.00,692.00 L 63.00,718.00 L 62.00,719.00 L 62.00,761.00 L 63.00,765.00 L 67.00,769.00 L 70.00,770.00 L 76.00,769.00 L 80.00,764.00 L 80.00,715.00 L 81.00,714.00 L 82.00,689.00 L 97.00,685.00 L 120.00,674.00 L 141.00,659.00 L 150.00,651.00 L 167.00,631.00 L 173.00,622.00 L 183.00,601.00 L 188.00,582.00 L 188.00,563.00 L 187.00,562.00 L 186.00,554.00 L 181.00,543.00 L 176.00,536.00 L 168.00,529.00 Z M 398.00,464.00 L 394.00,462.00 L 388.00,464.00 L 376.00,465.00 L 375.00,466.00 L 367.00,466.00 L 366.00,467.00 L 342.00,468.00 L 341.00,469.00 L 325.00,469.00 L 324.00,470.00 L 306.00,470.00 L 305.00,471.00 L 266.00,472.00 L 265.00,473.00 L 242.00,474.00 L 242.00,476.00 L 253.00,477.00 L 254.00,478.00 L 265.00,478.00 L 266.00,479.00 L 303.00,479.00 L 304.00,478.00 L 322.00,478.00 L 323.00,477.00 L 350.00,476.00 L 351.00,475.00 L 362.00,475.00 L 363.00,474.00 L 372.00,474.00 L 373.00,473.00 L 386.00,472.00 L 396.00,469.00 L 398.00,467.00 Z M 137.00,459.00 L 139.00,458.00 L 147.00,461.00 L 156.00,461.00 L 164.00,457.00 L 167.00,468.00 L 176.00,484.00 L 172.00,485.00 L 156.00,479.00 L 150.00,475.00 L 140.00,465.00 Z M 110.00,389.00 L 112.00,390.00 L 112.00,409.00 L 113.00,410.00 L 114.00,426.00 L 118.00,440.00 L 121.00,445.00 L 120.00,447.00 L 114.00,447.00 L 106.00,443.00 L 101.00,437.00 L 98.00,429.00 L 99.00,414.00 L 104.00,400.00 Z M 135.00,361.00 L 136.00,362.00 L 136.00,395.00 L 138.00,398.00 L 138.00,404.00 L 137.00,405.00 L 137.00,409.00 L 135.00,413.00 L 133.00,414.00 L 130.00,408.00 L 130.00,398.00 L 132.00,396.00 L 132.00,390.00 L 130.00,388.00 L 131.00,386.00 L 130.00,382.00 L 132.00,376.00 L 132.00,364.00 Z M 119.00,359.00 L 123.00,359.00 L 127.00,361.00 L 126.00,372.00 L 125.00,373.00 L 125.00,395.00 L 126.00,396.00 L 126.00,405.00 L 127.00,406.00 L 128.00,416.00 L 132.00,420.00 L 136.00,419.00 L 140.00,415.00 L 143.00,407.00 L 143.00,373.00 L 142.00,372.00 L 142.00,362.00 L 152.00,359.00 L 156.00,360.00 L 158.00,405.00 L 159.00,406.00 L 161.00,437.00 L 162.00,438.00 L 162.00,445.00 L 163.00,446.00 L 162.00,450.00 L 159.00,450.00 L 157.00,448.00 L 153.00,439.00 L 152.00,429.00 L 151.00,428.00 L 151.00,418.00 L 150.00,417.00 L 150.00,404.00 L 149.00,404.00 L 148.00,408.00 L 146.00,432.00 L 147.00,433.00 L 148.00,444.00 L 152.00,453.00 L 151.00,454.00 L 147.00,454.00 L 135.00,449.00 L 130.00,445.00 L 124.00,435.00 L 121.00,423.00 L 120.00,404.00 L 119.00,403.00 L 119.00,380.00 L 118.00,379.00 L 118.00,360.00 Z M 109.00,354.00 L 111.00,355.00 L 112.00,372.00 L 111.00,376.00 L 101.00,392.00 L 101.00,394.00 L 95.00,406.00 L 93.00,412.00 L 91.00,426.00 L 94.00,438.00 L 101.00,447.00 L 112.00,453.00 L 126.00,453.00 L 128.00,455.00 L 131.00,462.00 L 131.00,465.00 L 126.00,468.00 L 112.00,468.00 L 108.00,466.00 L 104.00,466.00 L 97.00,462.00 L 95.00,462.00 L 83.00,450.00 L 77.00,436.00 L 77.00,424.00 L 78.00,423.00 L 78.00,415.00 L 80.00,411.00 L 80.00,408.00 L 84.00,398.00 L 88.00,392.00 L 88.00,389.00 L 92.00,384.00 L 106.00,357.00 Z M 113.00,318.00 L 117.00,315.00 L 122.00,318.00 L 133.00,321.00 L 155.00,322.00 L 156.00,323.00 L 156.00,350.00 L 153.00,352.00 L 150.00,351.00 L 151.00,339.00 L 149.00,338.00 L 146.00,340.00 L 144.00,351.00 L 141.00,354.00 L 137.00,352.00 L 126.00,353.00 L 117.00,350.00 L 114.00,345.00 Z M 216.00,286.00 L 216.00,284.00 L 219.00,279.00 L 229.00,269.00 L 242.00,262.00 L 248.00,261.00 L 252.00,259.00 L 263.00,258.00 L 264.00,257.00 L 283.00,256.00 L 284.00,255.00 L 298.00,255.00 L 299.00,254.00 L 342.00,254.00 L 343.00,255.00 L 353.00,255.00 L 354.00,256.00 L 367.00,257.00 L 376.00,260.00 L 383.00,264.00 L 392.00,272.00 L 396.00,278.00 L 395.00,281.00 L 375.00,279.00 L 369.00,281.00 L 346.00,281.00 L 345.00,282.00 L 321.00,282.00 L 320.00,283.00 L 299.00,283.00 L 298.00,284.00 L 253.00,285.00 L 252.00,286.00 L 239.00,286.00 L 235.00,288.00 L 217.00,287.00 Z M 392.00,261.00 L 377.00,252.00 L 360.00,248.00 L 337.00,247.00 L 336.00,246.00 L 290.00,247.00 L 289.00,248.00 L 278.00,248.00 L 277.00,249.00 L 268.00,249.00 L 267.00,250.00 L 255.00,251.00 L 237.00,256.00 L 223.00,264.00 L 214.00,273.00 L 207.00,285.00 L 201.00,306.00 L 199.00,326.00 L 198.00,327.00 L 197.00,361.00 L 196.00,362.00 L 196.00,389.00 L 197.00,390.00 L 197.00,410.00 L 198.00,411.00 L 199.00,432.00 L 200.00,433.00 L 202.00,448.00 L 204.00,454.00 L 208.00,460.00 L 212.00,461.00 L 215.00,457.00 L 210.00,448.00 L 207.00,437.00 L 206.00,422.00 L 205.00,421.00 L 205.00,408.00 L 204.00,407.00 L 204.00,389.00 L 203.00,388.00 L 203.00,364.00 L 206.00,361.00 L 208.00,363.00 L 208.00,368.00 L 207.00,369.00 L 208.00,411.00 L 209.00,412.00 L 209.00,420.00 L 210.00,421.00 L 211.00,433.00 L 213.00,434.00 L 214.00,358.00 L 212.00,356.00 L 204.00,353.00 L 204.00,337.00 L 205.00,336.00 L 206.00,319.00 L 207.00,318.00 L 208.00,307.00 L 211.00,296.00 L 213.00,294.00 L 217.00,294.00 L 218.00,295.00 L 213.00,306.00 L 213.00,310.00 L 210.00,321.00 L 209.00,337.00 L 208.00,338.00 L 208.00,351.00 L 209.00,352.00 L 213.00,352.00 L 215.00,350.00 L 216.00,327.00 L 217.00,326.00 L 218.00,315.00 L 221.00,303.00 L 230.00,294.00 L 233.00,293.00 L 246.00,294.00 L 247.00,293.00 L 339.00,290.00 L 340.00,289.00 L 364.00,289.00 L 365.00,288.00 L 385.00,288.00 L 387.00,292.00 L 387.00,304.00 L 389.00,307.00 L 393.00,307.00 L 395.00,304.00 L 395.00,300.00 L 394.00,299.00 L 394.00,289.00 L 395.00,288.00 L 398.00,288.00 L 403.00,296.00 L 405.00,312.00 L 406.00,313.00 L 406.00,321.00 L 407.00,322.00 L 409.00,367.00 L 410.00,368.00 L 410.00,394.00 L 411.00,395.00 L 410.00,441.00 L 409.00,442.00 L 409.00,447.00 L 404.00,456.00 L 405.00,458.00 L 408.00,459.00 L 413.00,455.00 L 417.00,444.00 L 417.00,434.00 L 418.00,433.00 L 418.00,389.00 L 417.00,388.00 L 417.00,364.00 L 416.00,363.00 L 416.00,346.00 L 415.00,345.00 L 414.00,320.00 L 413.00,319.00 L 411.00,299.00 L 409.00,292.00 L 404.00,284.00 L 403.00,275.00 L 397.00,266.00 Z M 296.00,142.00 L 294.00,144.00 L 295.00,167.00 L 294.00,168.00 L 276.00,169.00 L 274.00,171.00 L 274.00,174.00 L 276.00,176.00 L 294.00,175.00 L 296.00,177.00 L 298.00,218.00 L 302.00,221.00 L 306.00,218.00 L 304.00,178.00 L 303.00,176.00 L 309.00,174.00 L 323.00,174.00 L 326.00,169.00 L 323.00,166.00 L 304.00,167.00 L 302.00,159.00 L 302.00,145.00 L 300.00,142.00 Z M 194.00,130.00 L 190.00,132.00 L 182.00,140.00 L 170.00,156.00 L 162.00,171.00 L 151.00,199.00 L 144.00,228.00 L 143.00,241.00 L 142.00,242.00 L 142.00,253.00 L 141.00,254.00 L 141.00,277.00 L 142.00,278.00 L 142.00,286.00 L 144.00,288.00 L 144.00,275.00 L 145.00,274.00 L 145.00,266.00 L 146.00,265.00 L 148.00,243.00 L 149.00,242.00 L 152.00,222.00 L 157.00,206.00 L 157.00,203.00 L 166.00,178.00 L 177.00,156.00 L 186.00,142.00 L 195.00,131.00 Z M 190.00,113.00 L 191.00,115.00 L 174.00,132.00 L 158.00,156.00 L 147.00,179.00 L 147.00,182.00 L 145.00,184.00 L 145.00,187.00 L 141.00,196.00 L 139.00,207.00 L 137.00,210.00 L 137.00,215.00 L 135.00,220.00 L 133.00,237.00 L 131.00,243.00 L 131.00,252.00 L 130.00,253.00 L 130.00,262.00 L 129.00,263.00 L 127.00,311.00 L 125.00,312.00 L 120.00,310.00 L 117.00,306.00 L 118.00,303.00 L 118.00,255.00 L 119.00,254.00 L 119.00,245.00 L 120.00,244.00 L 120.00,234.00 L 121.00,233.00 L 122.00,220.00 L 124.00,215.00 L 124.00,210.00 L 126.00,206.00 L 126.00,202.00 L 130.00,191.00 L 130.00,187.00 L 133.00,182.00 L 137.00,169.00 L 142.00,161.00 L 142.00,159.00 L 148.00,150.00 L 148.00,148.00 L 150.00,147.00 L 156.00,138.00 L 171.00,123.00 L 181.00,116.00 L 187.00,113.00 Z M 340.00,115.00 L 353.00,121.00 L 366.00,129.00 L 385.00,146.00 L 393.00,156.00 L 404.00,174.00 L 411.00,189.00 L 416.00,204.00 L 420.00,225.00 L 421.00,226.00 L 422.00,236.00 L 423.00,237.00 L 426.00,265.00 L 427.00,266.00 L 429.00,294.00 L 430.00,295.00 L 430.00,305.00 L 431.00,306.00 L 432.00,330.00 L 433.00,331.00 L 434.00,361.00 L 435.00,362.00 L 435.00,389.00 L 436.00,390.00 L 435.00,426.00 L 434.00,427.00 L 434.00,438.00 L 433.00,439.00 L 433.00,443.00 L 431.00,446.00 L 431.00,451.00 L 428.00,461.00 L 424.00,468.00 L 414.00,477.00 L 400.00,482.00 L 381.00,484.00 L 380.00,485.00 L 371.00,485.00 L 370.00,486.00 L 351.00,487.00 L 350.00,488.00 L 338.00,488.00 L 337.00,489.00 L 325.00,489.00 L 324.00,490.00 L 294.00,491.00 L 293.00,492.00 L 265.00,492.00 L 264.00,493.00 L 212.00,492.00 L 195.00,488.00 L 187.00,483.00 L 180.00,476.00 L 174.00,465.00 L 171.00,454.00 L 169.00,436.00 L 168.00,435.00 L 168.00,427.00 L 167.00,426.00 L 167.00,417.00 L 166.00,416.00 L 165.00,383.00 L 164.00,382.00 L 164.00,359.00 L 163.00,358.00 L 163.00,313.00 L 164.00,312.00 L 164.00,294.00 L 165.00,293.00 L 166.00,270.00 L 167.00,269.00 L 168.00,254.00 L 169.00,253.00 L 169.00,248.00 L 170.00,247.00 L 170.00,242.00 L 171.00,241.00 L 171.00,236.00 L 173.00,231.00 L 174.00,222.00 L 176.00,218.00 L 178.00,207.00 L 184.00,189.00 L 194.00,167.00 L 208.00,146.00 L 222.00,132.00 L 233.00,124.00 L 244.00,118.00 L 246.00,118.00 L 256.00,113.00 L 259.00,113.00 L 267.00,110.00 L 279.00,109.00 L 280.00,108.00 L 290.00,108.00 L 291.00,107.00 L 318.00,109.00 Z M 385.00,122.00 L 394.00,135.00 L 394.00,137.00 L 399.00,145.00 L 400.00,148.00 L 399.00,150.00 L 396.00,148.00 L 392.00,142.00 L 381.00,131.00 L 362.00,117.00 L 338.00,106.00 L 317.00,101.00 L 311.00,101.00 L 310.00,100.00 L 281.00,100.00 L 280.00,101.00 L 273.00,101.00 L 272.00,102.00 L 263.00,103.00 L 245.00,109.00 L 231.00,116.00 L 222.00,122.00 L 202.00,141.00 L 196.00,149.00 L 186.00,166.00 L 186.00,168.00 L 179.00,181.00 L 169.00,212.00 L 168.00,220.00 L 165.00,229.00 L 164.00,239.00 L 163.00,240.00 L 160.00,266.00 L 159.00,267.00 L 159.00,275.00 L 158.00,276.00 L 156.00,314.00 L 155.00,315.00 L 141.00,315.00 L 140.00,314.00 L 135.00,314.00 L 133.00,312.00 L 134.00,278.00 L 135.00,277.00 L 135.00,264.00 L 136.00,263.00 L 137.00,245.00 L 138.00,244.00 L 141.00,221.00 L 148.00,195.00 L 158.00,170.00 L 160.00,168.00 L 171.00,147.00 L 180.00,135.00 L 197.00,118.00 L 204.00,113.00 L 206.00,110.00 L 210.00,109.00 L 222.00,101.00 L 224.00,101.00 L 235.00,95.00 L 258.00,88.00 L 276.00,86.00 L 277.00,85.00 L 307.00,85.00 L 308.00,86.00 L 315.00,86.00 L 316.00,87.00 L 322.00,87.00 L 327.00,89.00 L 331.00,89.00 L 352.00,96.00 L 369.00,106.00 Z M 254.00,72.00 L 256.00,64.00 L 259.00,58.00 L 265.00,51.00 L 274.00,46.00 L 288.00,45.00 L 289.00,46.00 L 293.00,46.00 L 299.00,49.00 L 306.00,56.00 L 311.00,69.00 L 311.00,77.00 L 310.00,78.00 L 283.00,77.00 L 282.00,78.00 L 272.00,78.00 L 271.00,79.00 L 255.00,81.00 L 254.00,80.00 Z M 327.00,54.00 L 331.00,70.00 L 331.00,81.00 L 330.00,82.00 L 322.00,81.00 L 318.00,79.00 L 318.00,72.00 L 317.00,71.00 L 316.00,63.00 L 310.00,50.00 L 304.00,44.00 L 302.00,44.00 L 295.00,40.00 L 287.00,39.00 L 286.00,38.00 L 280.00,38.00 L 275.00,40.00 L 271.00,40.00 L 260.00,46.00 L 253.00,55.00 L 249.00,63.00 L 249.00,67.00 L 247.00,72.00 L 247.00,83.00 L 245.00,85.00 L 240.00,86.00 L 237.00,88.00 L 234.00,87.00 L 234.00,70.00 L 236.00,65.00 L 236.00,61.00 L 242.00,48.00 L 251.00,37.00 L 260.00,31.00 L 269.00,27.00 L 289.00,25.00 L 293.00,27.00 L 298.00,27.00 L 309.00,32.00 L 321.00,44.00 Z M 267.00,21.00 L 261.00,23.00 L 249.00,30.00 L 237.00,43.00 L 229.00,62.00 L 228.00,73.00 L 227.00,74.00 L 227.00,90.00 L 212.00,99.00 L 204.00,100.00 L 187.00,106.00 L 167.00,118.00 L 149.00,136.00 L 140.00,149.00 L 133.00,162.00 L 123.00,188.00 L 123.00,191.00 L 121.00,195.00 L 116.00,215.00 L 116.00,221.00 L 115.00,222.00 L 115.00,228.00 L 113.00,236.00 L 113.00,245.00 L 112.00,246.00 L 112.00,262.00 L 111.00,263.00 L 111.00,310.00 L 108.00,313.00 L 106.00,318.00 L 107.00,344.00 L 84.00,383.00 L 76.00,400.00 L 71.00,417.00 L 71.00,437.00 L 73.00,445.00 L 78.00,455.00 L 84.00,462.00 L 88.00,465.00 L 90.00,465.00 L 94.00,469.00 L 96.00,469.00 L 101.00,472.00 L 104.00,472.00 L 108.00,474.00 L 127.00,474.00 L 128.00,473.00 L 136.00,472.00 L 147.00,482.00 L 149.00,482.00 L 150.00,484.00 L 155.00,487.00 L 158.00,487.00 L 160.00,489.00 L 173.00,493.00 L 181.00,493.00 L 183.00,495.00 L 191.00,495.00 L 204.00,499.00 L 218.00,499.00 L 219.00,500.00 L 302.00,499.00 L 303.00,498.00 L 317.00,498.00 L 318.00,497.00 L 334.00,497.00 L 337.00,495.00 L 339.00,496.00 L 358.00,495.00 L 359.00,494.00 L 367.00,494.00 L 368.00,493.00 L 376.00,493.00 L 377.00,492.00 L 393.00,491.00 L 398.00,489.00 L 404.00,489.00 L 415.00,485.00 L 423.00,480.00 L 432.00,470.00 L 437.00,458.00 L 439.00,445.00 L 441.00,440.00 L 442.00,413.00 L 443.00,412.00 L 442.00,356.00 L 441.00,355.00 L 440.00,322.00 L 439.00,321.00 L 439.00,309.00 L 438.00,308.00 L 436.00,279.00 L 435.00,278.00 L 434.00,262.00 L 433.00,261.00 L 432.00,247.00 L 431.00,246.00 L 431.00,240.00 L 430.00,239.00 L 427.00,216.00 L 426.00,215.00 L 423.00,196.00 L 417.00,172.00 L 411.00,154.00 L 404.00,140.00 L 404.00,138.00 L 398.00,127.00 L 390.00,116.00 L 375.00,101.00 L 355.00,89.00 L 338.00,83.00 L 337.00,66.00 L 334.00,54.00 L 326.00,39.00 L 316.00,29.00 L 310.00,25.00 L 297.00,20.00 L 276.00,19.00 L 275.00,20.00 Z" fill="#0F3A5D" fill-rule="evenodd"/><path id="coral" d="M 301.00,826.00 L 310.00,834.00 L 319.00,837.00 L 313.00,850.00 L 304.00,859.00 L 301.00,859.00 L 296.00,853.00 L 296.00,839.00 L 299.00,829.00 Z M 314.00,804.00 L 316.00,804.00 L 320.00,808.00 L 322.00,812.00 L 322.00,825.00 L 321.00,826.00 L 315.00,824.00 L 310.00,818.00 L 309.00,811.00 L 310.00,808.00 Z M 439.00,803.00 L 441.00,807.00 L 438.00,814.00 L 430.00,822.00 L 422.00,825.00 L 421.00,824.00 L 422.00,820.00 L 424.00,818.00 L 427.00,811.00 L 434.00,804.00 Z M 559.00,840.00 L 554.00,837.00 L 551.00,838.00 L 548.00,843.00 L 539.00,852.00 L 528.00,858.00 L 520.00,860.00 L 505.00,859.00 L 499.00,857.00 L 481.00,847.00 L 474.00,845.00 L 459.00,846.00 L 450.00,850.00 L 436.00,859.00 L 428.00,860.00 L 423.00,858.00 L 418.00,851.00 L 418.00,846.00 L 417.00,845.00 L 418.00,838.00 L 434.00,833.00 L 439.00,830.00 L 448.00,821.00 L 452.00,812.00 L 452.00,802.00 L 450.00,798.00 L 446.00,794.00 L 442.00,792.00 L 432.00,792.00 L 424.00,796.00 L 415.00,806.00 L 409.00,818.00 L 407.00,825.00 L 405.00,827.00 L 401.00,827.00 L 396.00,821.00 L 396.00,814.00 L 399.00,808.00 L 401.00,799.00 L 398.00,795.00 L 392.00,794.00 L 386.00,800.00 L 384.00,809.00 L 373.00,831.00 L 373.00,833.00 L 361.00,854.00 L 359.00,855.00 L 358.00,854.00 L 358.00,834.00 L 359.00,833.00 L 359.00,825.00 L 360.00,824.00 L 360.00,817.00 L 362.00,809.00 L 361.00,802.00 L 359.00,800.00 L 351.00,801.00 L 348.00,807.00 L 347.00,814.00 L 341.00,820.00 L 335.00,823.00 L 334.00,822.00 L 333.00,809.00 L 329.00,800.00 L 325.00,796.00 L 321.00,794.00 L 311.00,793.00 L 304.00,796.00 L 299.00,801.00 L 297.00,810.00 L 293.00,814.00 L 289.00,821.00 L 284.00,836.00 L 283.00,850.00 L 286.00,861.00 L 291.00,867.00 L 294.00,869.00 L 302.00,871.00 L 303.00,870.00 L 308.00,870.00 L 315.00,866.00 L 321.00,860.00 L 328.00,848.00 L 331.00,840.00 L 331.00,837.00 L 333.00,835.00 L 345.00,831.00 L 346.00,832.00 L 346.00,858.00 L 350.00,869.00 L 352.00,871.00 L 359.00,873.00 L 362.00,872.00 L 369.00,865.00 L 373.00,859.00 L 386.00,832.00 L 389.00,831.00 L 394.00,836.00 L 404.00,839.00 L 405.00,852.00 L 409.00,862.00 L 415.00,868.00 L 423.00,872.00 L 431.00,873.00 L 432.00,872.00 L 440.00,871.00 L 448.00,867.00 L 456.00,861.00 L 466.00,857.00 L 476.00,858.00 L 495.00,868.00 L 504.00,871.00 L 520.00,872.00 L 537.00,867.00 L 546.00,861.00 L 557.00,849.00 L 559.00,845.00 Z M 512.00,770.00 L 518.00,770.00 L 523.00,775.00 L 526.00,782.00 L 527.00,795.00 L 529.00,797.00 L 534.00,797.00 L 538.00,791.00 L 544.00,785.00 L 551.00,781.00 L 557.00,782.00 L 560.00,786.00 L 559.00,796.00 L 551.00,807.00 L 536.00,821.00 L 525.00,829.00 L 522.00,827.00 L 510.00,804.00 L 506.00,790.00 L 507.00,776.00 Z M 511.00,760.00 L 505.00,763.00 L 499.00,772.00 L 498.00,780.00 L 497.00,781.00 L 498.00,794.00 L 502.00,807.00 L 511.00,825.00 L 518.00,836.00 L 518.00,840.00 L 520.00,842.00 L 525.00,842.00 L 530.00,836.00 L 534.00,834.00 L 550.00,821.00 L 562.00,808.00 L 566.00,802.00 L 569.00,794.00 L 569.00,783.00 L 567.00,779.00 L 563.00,775.00 L 554.00,772.00 L 545.00,774.00 L 535.00,780.00 L 533.00,778.00 L 533.00,775.00 L 529.00,767.00 L 525.00,763.00 L 519.00,760.00 Z M 265.00,754.00 L 259.00,754.00 L 255.00,758.00 L 243.00,786.00 L 242.00,791.00 L 240.00,794.00 L 230.00,825.00 L 229.00,832.00 L 227.00,836.00 L 223.00,852.00 L 223.00,856.00 L 219.00,871.00 L 218.00,882.00 L 217.00,883.00 L 217.00,891.00 L 219.00,895.00 L 224.00,898.00 L 231.00,897.00 L 241.00,890.00 L 260.00,881.00 L 271.00,878.00 L 283.00,877.00 L 285.00,874.00 L 285.00,870.00 L 281.00,866.00 L 268.00,866.00 L 249.00,871.00 L 236.00,877.00 L 234.00,876.00 L 235.00,866.00 L 245.00,827.00 L 256.00,795.00 L 270.00,763.00 L 269.00,757.00 Z M 349.00,328.00 L 336.00,328.00 L 329.00,331.00 L 317.00,342.00 L 313.00,350.00 L 311.00,349.00 L 307.00,342.00 L 299.00,334.00 L 289.00,329.00 L 275.00,329.00 L 265.00,334.00 L 261.00,338.00 L 257.00,345.00 L 255.00,352.00 L 255.00,366.00 L 262.00,382.00 L 274.00,398.00 L 299.00,423.00 L 310.00,432.00 L 316.00,431.00 L 341.00,405.00 L 355.00,388.00 L 366.00,369.00 L 366.00,366.00 L 368.00,362.00 L 368.00,349.00 L 366.00,342.00 L 356.00,331.00 Z M 68.00,105.00 L 68.00,109.00 L 72.00,112.00 L 78.00,113.00 L 81.00,115.00 L 84.00,115.00 L 105.00,123.00 L 110.00,123.00 L 112.00,120.00 L 112.00,116.00 L 109.00,113.00 L 92.00,108.00 L 75.00,101.00 L 70.00,102.00 Z M 91.00,59.00 L 90.00,66.00 L 122.00,94.00 L 125.00,95.00 L 129.00,93.00 L 130.00,88.00 L 128.00,85.00 L 97.00,58.00 Z M 132.00,21.00 L 129.00,24.00 L 129.00,28.00 L 133.00,35.00 L 133.00,37.00 L 148.00,69.00 L 149.00,73.00 L 153.00,75.00 L 156.00,74.00 L 158.00,72.00 L 158.00,67.00 L 148.00,46.00 L 145.00,37.00 L 138.00,22.00 Z" fill="#FF6868" fill-rule="evenodd"/>
</svg>
