<?xml version="1.0" encoding="UTF-8"?>
<svg xmlns="http://www.w3.org/2000/svg" width="1131" height="527" viewBox="0 0 1131 527" role="img" aria-labelledby="title desc">
  <metadata>Pack with Love - Primary Horizontal - White_Reverse. Locked palette: Navy #0F3A5D, Coral #FF6868, Warm Gold #DBB978, Cream #FFF8F1.</metadata>

  <title id="title">PackWithLove Primary Horizontal</title>
  <desc id="desc">Design-faithful vector trace based on the approved Pack with Love master artwork.</desc>
  <path id="peach" d="M 31.00,485.00 L 31.00,489.00 L 34.00,492.00 L 46.00,497.00 L 50.00,497.00 L 59.00,500.00 L 70.00,501.00 L 76.00,503.00 L 83.00,503.00 L 90.00,505.00 L 106.00,506.00 L 107.00,507.00 L 131.00,508.00 L 132.00,509.00 L 150.00,509.00 L 151.00,510.00 L 170.00,510.00 L 171.00,511.00 L 256.00,511.00 L 257.00,510.00 L 276.00,510.00 L 277.00,509.00 L 319.00,507.00 L 320.00,506.00 L 344.00,504.00 L 357.00,501.00 L 363.00,501.00 L 368.00,499.00 L 373.00,499.00 L 390.00,494.00 L 395.00,491.00 L 397.00,488.00 L 397.00,485.00 L 389.00,479.00 L 366.00,474.00 L 362.00,475.00 L 357.00,480.00 L 353.00,480.00 L 352.00,482.00 L 350.00,481.00 L 349.00,483.00 L 347.00,482.00 L 345.00,484.00 L 341.00,484.00 L 340.00,483.00 L 339.00,485.00 L 335.00,485.00 L 334.00,484.00 L 333.00,486.00 L 328.00,486.00 L 327.00,485.00 L 326.00,487.00 L 318.00,486.00 L 317.00,487.00 L 310.00,487.00 L 306.00,489.00 L 300.00,488.00 L 296.00,490.00 L 288.00,489.00 L 287.00,491.00 L 275.00,490.00 L 272.00,492.00 L 258.00,491.00 L 257.00,493.00 L 239.00,493.00 L 236.00,492.00 L 235.00,493.00 L 221.00,493.00 L 220.00,494.00 L 211.00,493.00 L 203.00,495.00 L 182.00,495.00 L 181.00,493.00 L 180.00,495.00 L 170.00,495.00 L 159.00,492.00 L 153.00,492.00 L 152.00,493.00 L 147.00,491.00 L 144.00,492.00 L 143.00,490.00 L 141.00,491.00 L 140.00,489.00 L 139.00,490.00 L 134.00,488.00 L 129.00,489.00 L 126.00,487.00 L 122.00,487.00 L 121.00,486.00 L 119.00,487.00 L 118.00,485.00 L 116.00,486.00 L 115.00,484.00 L 113.00,485.00 L 112.00,483.00 L 109.00,484.00 L 106.00,481.00 L 104.00,482.00 L 102.00,479.00 L 100.00,480.00 L 97.00,476.00 L 95.00,476.00 L 94.00,474.00 L 92.00,474.00 L 88.00,470.00 L 73.00,472.00 L 72.00,473.00 L 57.00,474.00 L 49.00,476.00 L 43.00,479.00 L 35.00,481.00 Z" fill="#FFFFFF" fill-rule="evenodd"/><path id="gold" d="M 58.00,354.00 L 57.00,357.00 L 55.00,358.00 L 53.00,363.00 L 49.00,368.00 L 47.00,374.00 L 43.00,379.00 L 40.00,385.00 L 39.00,390.00 L 35.00,395.00 L 33.00,405.00 L 31.00,408.00 L 30.00,425.00 L 31.00,426.00 L 31.00,432.00 L 35.00,441.00 L 45.00,452.00 L 56.00,457.00 L 59.00,456.00 L 61.00,458.00 L 68.00,459.00 L 69.00,458.00 L 77.00,457.00 L 76.00,450.00 L 74.00,448.00 L 64.00,448.00 L 52.00,444.00 L 46.00,438.00 L 46.00,436.00 L 44.00,435.00 L 44.00,433.00 L 42.00,431.00 L 42.00,428.00 L 40.00,427.00 L 40.00,423.00 L 39.00,422.00 L 40.00,410.00 L 42.00,407.00 L 42.00,403.00 L 44.00,399.00 L 45.00,393.00 L 59.00,369.00 Z M 130.00,120.00 L 125.00,122.00 L 121.00,126.00 L 117.00,128.00 L 105.00,140.00 L 104.00,143.00 L 101.00,145.00 L 101.00,147.00 L 97.00,151.00 L 95.00,157.00 L 93.00,158.00 L 89.00,166.00 L 88.00,172.00 L 85.00,176.00 L 85.00,179.00 L 83.00,181.00 L 83.00,184.00 L 77.00,203.00 L 78.00,205.00 L 75.00,213.00 L 74.00,223.00 L 73.00,224.00 L 73.00,231.00 L 71.00,238.00 L 71.00,249.00 L 70.00,250.00 L 71.00,255.00 L 70.00,256.00 L 70.00,264.00 L 69.00,265.00 L 69.00,284.00 L 70.00,285.00 L 69.00,292.00 L 70.00,293.00 L 70.00,303.00 L 72.00,305.00 L 74.00,305.00 L 74.00,298.00 L 75.00,297.00 L 74.00,284.00 L 76.00,278.00 L 76.00,260.00 L 78.00,253.00 L 78.00,243.00 L 80.00,237.00 L 80.00,229.00 L 82.00,224.00 L 82.00,218.00 L 84.00,213.00 L 84.00,209.00 L 86.00,206.00 L 86.00,201.00 L 89.00,193.00 L 89.00,189.00 L 92.00,184.00 L 94.00,176.00 L 96.00,174.00 L 98.00,167.00 L 100.00,165.00 L 100.00,163.00 L 103.00,159.00 L 107.00,149.00 L 111.00,145.00 L 118.00,134.00 L 128.00,124.00 Z M 180.00,88.00 L 182.00,89.00 L 189.00,85.00 L 190.00,82.00 L 190.00,72.00 L 192.00,64.00 L 194.00,62.00 L 194.00,59.00 L 196.00,58.00 L 196.00,56.00 L 206.00,46.00 L 212.00,43.00 L 220.00,41.00 L 225.00,41.00 L 226.00,40.00 L 234.00,41.00 L 248.00,47.00 L 253.00,52.00 L 259.00,61.00 L 261.00,66.00 L 262.00,77.00 L 264.00,81.00 L 268.00,81.00 L 269.00,82.00 L 271.00,81.00 L 270.00,68.00 L 265.00,54.00 L 255.00,42.00 L 241.00,34.00 L 230.00,34.00 L 229.00,33.00 L 215.00,34.00 L 205.00,38.00 L 197.00,43.00 L 187.00,54.00 L 186.00,59.00 L 183.00,63.00 L 183.00,67.00 L 181.00,71.00 L 181.00,87.00 Z" fill="#FFFFFF" fill-rule="evenodd"/><path id="navy" d="M 340.00,457.00 L 339.00,456.00 L 332.00,456.00 L 325.00,458.00 L 309.00,459.00 L 308.00,460.00 L 296.00,460.00 L 295.00,461.00 L 247.00,463.00 L 246.00,464.00 L 227.00,464.00 L 226.00,465.00 L 209.00,465.00 L 208.00,466.00 L 189.00,467.00 L 188.00,469.00 L 205.00,470.00 L 206.00,471.00 L 254.00,471.00 L 255.00,470.00 L 287.00,469.00 L 288.00,468.00 L 319.00,466.00 L 320.00,465.00 L 336.00,463.00 L 340.00,460.00 Z M 86.00,452.00 L 88.00,451.00 L 93.00,453.00 L 102.00,454.00 L 103.00,453.00 L 107.00,453.00 L 112.00,450.00 L 116.00,463.00 L 125.00,477.00 L 124.00,478.00 L 110.00,474.00 L 101.00,469.00 L 90.00,459.00 Z M 60.00,383.00 L 62.00,384.00 L 62.00,402.00 L 63.00,403.00 L 64.00,420.00 L 67.00,431.00 L 71.00,438.00 L 70.00,440.00 L 64.00,440.00 L 59.00,438.00 L 52.00,431.00 L 49.00,425.00 L 49.00,421.00 L 48.00,420.00 L 48.00,414.00 L 49.00,413.00 L 50.00,405.00 L 54.00,394.00 Z M 546.00,372.00 L 540.00,372.00 L 537.00,375.00 L 537.00,422.00 L 539.00,425.00 L 542.00,426.00 L 546.00,425.00 L 548.00,422.00 L 548.00,375.00 Z M 451.00,375.00 L 451.00,379.00 L 456.00,391.00 L 459.00,403.00 L 461.00,406.00 L 466.00,423.00 L 468.00,425.00 L 473.00,426.00 L 478.00,422.00 L 480.00,414.00 L 486.00,400.00 L 486.00,397.00 L 488.00,394.00 L 491.00,395.00 L 496.00,412.00 L 501.00,424.00 L 506.00,426.00 L 509.00,425.00 L 512.00,422.00 L 516.00,408.00 L 520.00,399.00 L 520.00,396.00 L 527.00,377.00 L 526.00,373.00 L 519.00,372.00 L 516.00,375.00 L 515.00,381.00 L 509.00,397.00 L 509.00,400.00 L 506.00,406.00 L 504.00,405.00 L 498.00,385.00 L 496.00,383.00 L 495.00,376.00 L 492.00,372.00 L 487.00,372.00 L 484.00,374.00 L 473.00,406.00 L 470.00,403.00 L 470.00,400.00 L 464.00,384.00 L 464.00,381.00 L 462.00,378.00 L 462.00,375.00 L 459.00,372.00 L 454.00,372.00 Z M 84.00,356.00 L 85.00,357.00 L 85.00,389.00 L 87.00,392.00 L 87.00,400.00 L 85.00,406.00 L 82.00,408.00 L 79.00,402.00 L 79.00,394.00 L 81.00,389.00 L 81.00,359.00 Z M 572.00,354.00 L 569.00,355.00 L 567.00,358.00 L 567.00,371.00 L 566.00,372.00 L 560.00,372.00 L 558.00,374.00 L 558.00,380.00 L 561.00,382.00 L 566.00,382.00 L 567.00,383.00 L 567.00,414.00 L 570.00,421.00 L 576.00,425.00 L 585.00,426.00 L 593.00,423.00 L 595.00,418.00 L 594.00,415.00 L 591.00,413.00 L 583.00,416.00 L 578.00,412.00 L 578.00,383.00 L 580.00,380.00 L 582.00,380.00 L 583.00,382.00 L 592.00,381.00 L 594.00,379.00 L 594.00,375.00 L 591.00,372.00 L 579.00,372.00 L 578.00,371.00 L 578.00,358.00 L 576.00,355.00 Z M 68.00,354.00 L 76.00,356.00 L 75.00,358.00 L 75.00,366.00 L 74.00,367.00 L 74.00,383.00 L 75.00,384.00 L 75.00,398.00 L 76.00,399.00 L 77.00,410.00 L 79.00,413.00 L 86.00,412.00 L 90.00,407.00 L 92.00,400.00 L 91.00,357.00 L 92.00,356.00 L 100.00,355.00 L 103.00,353.00 L 105.00,354.00 L 106.00,397.00 L 107.00,398.00 L 108.00,421.00 L 109.00,422.00 L 110.00,438.00 L 111.00,439.00 L 111.00,442.00 L 109.00,444.00 L 105.00,441.00 L 102.00,435.00 L 101.00,425.00 L 100.00,424.00 L 100.00,417.00 L 99.00,416.00 L 99.00,401.00 L 98.00,400.00 L 96.00,406.00 L 96.00,420.00 L 95.00,423.00 L 96.00,424.00 L 97.00,438.00 L 101.00,446.00 L 100.00,447.00 L 96.00,447.00 L 85.00,443.00 L 79.00,438.00 L 75.00,432.00 L 71.00,418.00 L 69.00,393.00 L 67.00,388.00 L 68.00,384.00 L 67.00,355.00 Z M 59.00,350.00 L 61.00,351.00 L 61.00,370.00 L 52.00,384.00 L 45.00,400.00 L 45.00,403.00 L 43.00,407.00 L 43.00,413.00 L 42.00,414.00 L 42.00,423.00 L 45.00,432.00 L 52.00,441.00 L 59.00,445.00 L 64.00,445.00 L 65.00,446.00 L 66.00,445.00 L 68.00,446.00 L 74.00,445.00 L 77.00,447.00 L 77.00,449.00 L 80.00,454.00 L 80.00,458.00 L 77.00,460.00 L 69.00,460.00 L 68.00,461.00 L 66.00,460.00 L 59.00,460.00 L 46.00,455.00 L 32.00,441.00 L 32.00,438.00 L 30.00,435.00 L 28.00,427.00 L 28.00,412.00 L 30.00,408.00 L 30.00,404.00 L 34.00,392.00 L 36.00,390.00 L 40.00,380.00 L 52.00,359.00 L 56.00,354.00 L 56.00,352.00 Z M 539.00,349.00 L 537.00,351.00 L 536.00,357.00 L 539.00,361.00 L 544.00,362.00 L 549.00,358.00 L 549.00,352.00 L 546.00,349.00 Z M 609.00,345.00 L 605.00,348.00 L 605.00,423.00 L 610.00,426.00 L 615.00,423.00 L 616.00,421.00 L 616.00,391.00 L 618.00,387.00 L 622.00,383.00 L 626.00,382.00 L 627.00,380.00 L 631.00,380.00 L 638.00,387.00 L 639.00,390.00 L 639.00,422.00 L 641.00,425.00 L 647.00,425.00 L 650.00,421.00 L 650.00,399.00 L 649.00,398.00 L 649.00,384.00 L 648.00,381.00 L 642.00,374.00 L 634.00,371.00 L 625.00,372.00 L 617.00,376.00 L 616.00,375.00 L 616.00,351.00 L 615.00,347.00 L 612.00,345.00 Z M 63.00,314.00 L 65.00,312.00 L 68.00,312.00 L 75.00,315.00 L 83.00,316.00 L 84.00,317.00 L 103.00,318.00 L 104.00,319.00 L 104.00,345.00 L 100.00,348.00 L 98.00,347.00 L 100.00,335.00 L 97.00,334.00 L 94.00,339.00 L 93.00,345.00 L 90.00,349.00 L 85.00,347.00 L 74.00,348.00 L 67.00,346.00 L 64.00,343.00 L 64.00,337.00 L 63.00,336.00 Z M 162.00,283.00 L 162.00,281.00 L 167.00,273.00 L 173.00,267.00 L 185.00,260.00 L 203.00,255.00 L 210.00,255.00 L 211.00,254.00 L 218.00,254.00 L 219.00,253.00 L 230.00,253.00 L 231.00,252.00 L 247.00,252.00 L 248.00,251.00 L 283.00,251.00 L 284.00,252.00 L 303.00,253.00 L 304.00,254.00 L 312.00,255.00 L 320.00,258.00 L 328.00,263.00 L 336.00,272.00 L 338.00,276.00 L 337.00,278.00 L 329.00,278.00 L 323.00,276.00 L 317.00,276.00 L 312.00,278.00 L 286.00,278.00 L 285.00,279.00 L 259.00,279.00 L 258.00,280.00 L 194.00,282.00 L 193.00,283.00 L 183.00,283.00 L 180.00,285.00 L 177.00,284.00 L 163.00,284.00 Z M 160.00,270.00 L 152.00,285.00 L 147.00,304.00 L 146.00,320.00 L 145.00,321.00 L 145.00,334.00 L 144.00,335.00 L 144.00,359.00 L 143.00,360.00 L 144.00,403.00 L 145.00,404.00 L 146.00,426.00 L 147.00,427.00 L 147.00,433.00 L 152.00,450.00 L 155.00,453.00 L 159.00,453.00 L 160.00,452.00 L 160.00,448.00 L 155.00,437.00 L 154.00,427.00 L 153.00,426.00 L 153.00,419.00 L 152.00,418.00 L 151.00,388.00 L 150.00,387.00 L 150.00,357.00 L 153.00,356.00 L 155.00,358.00 L 154.00,360.00 L 154.00,395.00 L 155.00,396.00 L 155.00,407.00 L 156.00,408.00 L 157.00,423.00 L 159.00,427.00 L 159.00,412.00 L 160.00,411.00 L 160.00,359.00 L 161.00,355.00 L 159.00,352.00 L 153.00,350.00 L 150.00,347.00 L 150.00,344.00 L 151.00,343.00 L 152.00,317.00 L 153.00,316.00 L 153.00,310.00 L 154.00,309.00 L 154.00,304.00 L 157.00,292.00 L 159.00,290.00 L 163.00,290.00 L 164.00,291.00 L 159.00,303.00 L 157.00,319.00 L 156.00,320.00 L 156.00,328.00 L 155.00,329.00 L 155.00,347.00 L 160.00,347.00 L 161.00,346.00 L 163.00,317.00 L 164.00,316.00 L 166.00,301.00 L 168.00,296.00 L 172.00,292.00 L 179.00,289.00 L 182.00,290.00 L 197.00,290.00 L 198.00,289.00 L 220.00,289.00 L 221.00,288.00 L 243.00,288.00 L 244.00,287.00 L 316.00,285.00 L 317.00,284.00 L 326.00,284.00 L 328.00,286.00 L 329.00,297.00 L 330.00,298.00 L 329.00,301.00 L 331.00,303.00 L 334.00,303.00 L 336.00,301.00 L 336.00,290.00 L 335.00,289.00 L 335.00,285.00 L 336.00,284.00 L 339.00,284.00 L 341.00,286.00 L 345.00,296.00 L 345.00,300.00 L 347.00,306.00 L 348.00,329.00 L 349.00,330.00 L 350.00,360.00 L 351.00,361.00 L 351.00,385.00 L 352.00,386.00 L 352.00,428.00 L 351.00,429.00 L 350.00,441.00 L 346.00,449.00 L 347.00,451.00 L 353.00,450.00 L 357.00,442.00 L 358.00,427.00 L 359.00,426.00 L 359.00,417.00 L 358.00,416.00 L 359.00,412.00 L 359.00,384.00 L 358.00,383.00 L 358.00,361.00 L 357.00,360.00 L 355.00,318.00 L 354.00,317.00 L 352.00,295.00 L 350.00,288.00 L 345.00,281.00 L 346.00,279.00 L 345.00,274.00 L 340.00,265.00 L 332.00,257.00 L 317.00,249.00 L 306.00,246.00 L 299.00,246.00 L 298.00,245.00 L 289.00,245.00 L 288.00,244.00 L 241.00,244.00 L 240.00,245.00 L 227.00,245.00 L 226.00,246.00 L 202.00,248.00 L 183.00,253.00 L 173.00,258.00 Z M 609.00,188.00 L 614.00,192.00 L 616.00,198.00 L 616.00,203.00 L 610.00,223.00 L 596.00,252.00 L 591.00,259.00 L 581.00,269.00 L 578.00,269.00 L 574.00,262.00 L 574.00,246.00 L 580.00,222.00 L 586.00,209.00 L 593.00,198.00 L 602.00,189.00 Z M 241.00,142.00 L 237.00,145.00 L 238.00,166.00 L 235.00,168.00 L 221.00,168.00 L 218.00,170.00 L 218.00,174.00 L 221.00,176.00 L 225.00,176.00 L 226.00,175.00 L 238.00,175.00 L 239.00,176.00 L 241.00,216.00 L 242.00,218.00 L 246.00,219.00 L 249.00,216.00 L 247.00,176.00 L 249.00,174.00 L 267.00,173.00 L 268.00,168.00 L 266.00,166.00 L 247.00,167.00 L 246.00,166.00 L 246.00,157.00 L 245.00,156.00 L 245.00,145.00 L 244.00,143.00 Z M 141.00,131.00 L 132.00,138.00 L 117.00,158.00 L 105.00,183.00 L 99.00,201.00 L 96.00,213.00 L 95.00,223.00 L 94.00,224.00 L 92.00,246.00 L 91.00,247.00 L 91.00,281.00 L 93.00,282.00 L 93.00,285.00 L 96.00,248.00 L 97.00,247.00 L 97.00,242.00 L 98.00,241.00 L 98.00,236.00 L 100.00,230.00 L 102.00,215.00 L 104.00,211.00 L 106.00,200.00 L 108.00,197.00 L 110.00,188.00 L 112.00,185.00 L 115.00,175.00 L 124.00,157.00 L 126.00,155.00 L 126.00,153.00 L 140.00,135.00 Z M 134.00,117.00 L 135.00,119.00 L 123.00,131.00 L 109.00,150.00 L 109.00,152.00 L 103.00,161.00 L 103.00,163.00 L 99.00,170.00 L 93.00,185.00 L 93.00,188.00 L 91.00,191.00 L 91.00,194.00 L 89.00,198.00 L 85.00,214.00 L 85.00,219.00 L 83.00,224.00 L 83.00,230.00 L 81.00,236.00 L 81.00,245.00 L 79.00,251.00 L 79.00,264.00 L 78.00,265.00 L 79.00,271.00 L 77.00,278.00 L 77.00,305.00 L 74.00,308.00 L 72.00,308.00 L 66.00,303.00 L 67.00,301.00 L 67.00,267.00 L 68.00,266.00 L 68.00,247.00 L 70.00,239.00 L 70.00,230.00 L 72.00,223.00 L 72.00,216.00 L 74.00,212.00 L 74.00,207.00 L 76.00,202.00 L 76.00,196.00 L 78.00,194.00 L 78.00,190.00 L 80.00,187.00 L 82.00,178.00 L 89.00,163.00 L 89.00,161.00 L 100.00,143.00 L 117.00,125.00 L 119.00,125.00 L 120.00,123.00 L 122.00,123.00 L 126.00,119.00 Z M 134.00,116.00 L 136.00,115.00 L 137.00,117.00 L 135.00,118.00 Z M 190.00,119.00 L 207.00,113.00 L 215.00,112.00 L 216.00,111.00 L 222.00,111.00 L 223.00,110.00 L 253.00,110.00 L 254.00,111.00 L 270.00,113.00 L 282.00,117.00 L 302.00,127.00 L 320.00,141.00 L 335.00,159.00 L 347.00,180.00 L 347.00,182.00 L 351.00,189.00 L 358.00,211.00 L 358.00,215.00 L 360.00,220.00 L 361.00,230.00 L 363.00,236.00 L 364.00,247.00 L 365.00,248.00 L 365.00,255.00 L 366.00,256.00 L 368.00,279.00 L 369.00,280.00 L 369.00,288.00 L 370.00,289.00 L 370.00,297.00 L 371.00,298.00 L 373.00,334.00 L 374.00,335.00 L 374.00,349.00 L 375.00,350.00 L 375.00,372.00 L 376.00,373.00 L 376.00,415.00 L 375.00,416.00 L 374.00,436.00 L 372.00,439.00 L 371.00,448.00 L 367.00,458.00 L 358.00,468.00 L 353.00,471.00 L 344.00,474.00 L 328.00,476.00 L 327.00,477.00 L 319.00,477.00 L 318.00,478.00 L 310.00,478.00 L 309.00,479.00 L 301.00,479.00 L 300.00,480.00 L 290.00,480.00 L 289.00,481.00 L 277.00,481.00 L 276.00,482.00 L 244.00,483.00 L 243.00,484.00 L 218.00,484.00 L 217.00,485.00 L 168.00,485.00 L 167.00,484.00 L 150.00,483.00 L 141.00,480.00 L 136.00,477.00 L 127.00,468.00 L 123.00,461.00 L 119.00,448.00 L 119.00,443.00 L 116.00,430.00 L 116.00,422.00 L 115.00,421.00 L 114.00,398.00 L 113.00,397.00 L 113.00,379.00 L 112.00,378.00 L 112.00,347.00 L 111.00,346.00 L 111.00,307.00 L 112.00,306.00 L 113.00,274.00 L 114.00,273.00 L 114.00,264.00 L 115.00,263.00 L 115.00,256.00 L 117.00,249.00 L 117.00,242.00 L 120.00,230.00 L 120.00,225.00 L 122.00,221.00 L 122.00,217.00 L 124.00,213.00 L 126.00,202.00 L 130.00,190.00 L 143.00,162.00 L 151.00,150.00 L 165.00,135.00 L 177.00,126.00 Z M 325.00,123.00 L 335.00,138.00 L 341.00,150.00 L 340.00,152.00 L 338.00,151.00 L 334.00,145.00 L 320.00,131.00 L 305.00,120.00 L 282.00,109.00 L 257.00,103.00 L 228.00,102.00 L 227.00,103.00 L 219.00,103.00 L 218.00,104.00 L 208.00,105.00 L 192.00,110.00 L 174.00,119.00 L 163.00,127.00 L 147.00,143.00 L 140.00,153.00 L 131.00,169.00 L 131.00,171.00 L 124.00,185.00 L 122.00,194.00 L 120.00,197.00 L 120.00,200.00 L 118.00,204.00 L 114.00,220.00 L 110.00,247.00 L 109.00,248.00 L 107.00,272.00 L 106.00,273.00 L 104.00,310.00 L 103.00,311.00 L 90.00,311.00 L 83.00,309.00 L 83.00,280.00 L 84.00,279.00 L 84.00,264.00 L 85.00,263.00 L 85.00,256.00 L 86.00,255.00 L 86.00,246.00 L 87.00,245.00 L 87.00,239.00 L 88.00,238.00 L 91.00,216.00 L 100.00,185.00 L 106.00,170.00 L 120.00,145.00 L 134.00,128.00 L 149.00,115.00 L 172.00,101.00 L 193.00,93.00 L 210.00,90.00 L 211.00,89.00 L 217.00,89.00 L 218.00,88.00 L 242.00,87.00 L 243.00,88.00 L 252.00,88.00 L 253.00,89.00 L 261.00,89.00 L 266.00,91.00 L 271.00,91.00 L 290.00,97.00 L 308.00,107.00 Z M 904.00,249.00 L 900.00,244.00 L 894.00,244.00 L 885.00,252.00 L 875.00,257.00 L 863.00,259.00 L 862.00,257.00 L 855.00,256.00 L 847.00,252.00 L 834.00,242.00 L 826.00,234.00 L 809.00,213.00 L 810.00,211.00 L 846.00,179.00 L 865.00,160.00 L 866.00,158.00 L 866.00,150.00 L 862.00,146.00 L 856.00,145.00 L 851.00,147.00 L 798.00,197.00 L 796.00,196.00 L 798.00,181.00 L 800.00,175.00 L 800.00,170.00 L 802.00,166.00 L 805.00,148.00 L 810.00,128.00 L 812.00,124.00 L 812.00,121.00 L 822.00,90.00 L 822.00,83.00 L 821.00,81.00 L 815.00,77.00 L 810.00,77.00 L 804.00,81.00 L 797.00,100.00 L 797.00,104.00 L 792.00,118.00 L 787.00,138.00 L 787.00,142.00 L 784.00,151.00 L 784.00,155.00 L 782.00,160.00 L 774.00,206.00 L 764.00,221.00 L 747.00,243.00 L 726.00,263.00 L 714.00,269.00 L 706.00,269.00 L 702.00,267.00 L 698.00,263.00 L 694.00,255.00 L 694.00,249.00 L 693.00,248.00 L 693.00,235.00 L 694.00,234.00 L 694.00,228.00 L 697.00,216.00 L 704.00,200.00 L 713.00,189.00 L 716.00,187.00 L 720.00,187.00 L 722.00,189.00 L 724.00,193.00 L 722.00,207.00 L 725.00,212.00 L 732.00,213.00 L 738.00,207.00 L 740.00,199.00 L 740.00,193.00 L 739.00,192.00 L 738.00,184.00 L 736.00,180.00 L 730.00,174.00 L 720.00,170.00 L 715.00,170.00 L 705.00,173.00 L 700.00,176.00 L 692.00,184.00 L 681.00,202.00 L 677.00,213.00 L 675.00,224.00 L 668.00,237.00 L 654.00,259.00 L 643.00,269.00 L 640.00,269.00 L 638.00,267.00 L 635.00,258.00 L 635.00,231.00 L 636.00,230.00 L 638.00,210.00 L 644.00,186.00 L 643.00,180.00 L 639.00,176.00 L 630.00,176.00 L 624.00,181.00 L 617.00,174.00 L 608.00,171.00 L 598.00,172.00 L 589.00,176.00 L 576.00,189.00 L 570.00,198.00 L 562.00,215.00 L 557.00,231.00 L 556.00,241.00 L 555.00,242.00 L 555.00,263.00 L 557.00,267.00 L 558.00,274.00 L 565.00,283.00 L 573.00,287.00 L 583.00,287.00 L 592.00,283.00 L 602.00,273.00 L 607.00,266.00 L 613.00,254.00 L 615.00,253.00 L 616.00,254.00 L 618.00,270.00 L 622.00,278.00 L 628.00,284.00 L 632.00,286.00 L 643.00,287.00 L 652.00,283.00 L 664.00,271.00 L 672.00,258.00 L 674.00,257.00 L 681.00,273.00 L 688.00,281.00 L 701.00,287.00 L 715.00,287.00 L 728.00,282.00 L 741.00,273.00 L 756.00,258.00 L 764.00,247.00 L 768.00,244.00 L 769.00,245.00 L 769.00,252.00 L 768.00,253.00 L 768.00,262.00 L 767.00,263.00 L 766.00,286.00 L 771.00,292.00 L 777.00,293.00 L 780.00,292.00 L 785.00,286.00 L 790.00,234.00 L 794.00,228.00 L 797.00,230.00 L 810.00,246.00 L 829.00,263.00 L 843.00,271.00 L 855.00,275.00 L 862.00,275.00 L 863.00,276.00 L 874.00,275.00 L 889.00,269.00 L 895.00,265.00 L 901.00,259.00 L 904.00,253.00 Z M 541.00,78.00 L 552.00,90.00 L 557.00,102.00 L 557.00,108.00 L 558.00,109.00 L 558.00,116.00 L 557.00,117.00 L 557.00,123.00 L 556.00,124.00 L 555.00,132.00 L 545.00,155.00 L 531.00,175.00 L 510.00,196.00 L 487.00,212.00 L 473.00,219.00 L 463.00,222.00 L 462.00,221.00 L 462.00,212.00 L 463.00,211.00 L 464.00,193.00 L 465.00,192.00 L 465.00,186.00 L 467.00,178.00 L 469.00,157.00 L 470.00,156.00 L 472.00,139.00 L 474.00,133.00 L 474.00,128.00 L 475.00,127.00 L 484.00,78.00 L 488.00,75.00 L 501.00,73.00 L 502.00,72.00 L 509.00,72.00 L 510.00,71.00 L 525.00,72.00 Z M 541.00,58.00 L 527.00,54.00 L 511.00,53.00 L 510.00,54.00 L 493.00,55.00 L 472.00,61.00 L 462.00,66.00 L 460.00,66.00 L 458.00,68.00 L 456.00,68.00 L 430.00,84.00 L 416.00,95.00 L 400.00,111.00 L 399.00,114.00 L 400.00,121.00 L 405.00,125.00 L 412.00,125.00 L 431.00,107.00 L 440.00,100.00 L 458.00,88.00 L 462.00,89.00 L 457.00,116.00 L 456.00,117.00 L 456.00,122.00 L 455.00,123.00 L 452.00,145.00 L 451.00,146.00 L 450.00,159.00 L 448.00,166.00 L 444.00,204.00 L 443.00,205.00 L 443.00,213.00 L 442.00,214.00 L 442.00,223.00 L 440.00,227.00 L 434.00,228.00 L 430.00,233.00 L 431.00,240.00 L 435.00,243.00 L 439.00,243.00 L 440.00,244.00 L 439.00,270.00 L 438.00,271.00 L 438.00,323.00 L 441.00,329.00 L 444.00,331.00 L 452.00,331.00 L 457.00,327.00 L 458.00,324.00 L 458.00,265.00 L 459.00,264.00 L 460.00,242.00 L 467.00,239.00 L 471.00,239.00 L 480.00,236.00 L 499.00,227.00 L 525.00,209.00 L 540.00,195.00 L 553.00,179.00 L 561.00,167.00 L 571.00,146.00 L 575.00,133.00 L 576.00,122.00 L 577.00,121.00 L 577.00,105.00 L 573.00,89.00 L 567.00,78.00 L 560.00,70.00 L 551.00,63.00 Z M 254.00,73.00 L 254.00,80.00 L 253.00,81.00 L 227.00,80.00 L 226.00,81.00 L 209.00,82.00 L 203.00,84.00 L 199.00,84.00 L 198.00,83.00 L 198.00,76.00 L 202.00,63.00 L 210.00,54.00 L 219.00,50.00 L 227.00,49.00 L 228.00,50.00 L 238.00,51.00 L 242.00,53.00 L 249.00,60.00 Z M 178.00,89.00 L 178.00,77.00 L 179.00,76.00 L 180.00,67.00 L 186.00,52.00 L 197.00,40.00 L 210.00,33.00 L 214.00,33.00 L 218.00,31.00 L 236.00,31.00 L 244.00,33.00 L 254.00,39.00 L 266.00,52.00 L 269.00,58.00 L 273.00,73.00 L 273.00,83.00 L 271.00,85.00 L 262.00,83.00 L 260.00,80.00 L 260.00,72.00 L 258.00,67.00 L 258.00,63.00 L 252.00,54.00 L 246.00,48.00 L 231.00,43.00 L 216.00,44.00 L 207.00,48.00 L 199.00,56.00 L 195.00,62.00 L 195.00,65.00 L 193.00,68.00 L 193.00,72.00 L 191.00,77.00 L 191.00,87.00 L 182.00,91.00 L 180.00,91.00 Z M 208.00,27.00 L 194.00,34.00 L 187.00,40.00 L 181.00,48.00 L 174.00,64.00 L 173.00,75.00 L 172.00,76.00 L 172.00,93.00 L 159.00,101.00 L 148.00,103.00 L 134.00,108.00 L 122.00,114.00 L 115.00,119.00 L 98.00,135.00 L 89.00,148.00 L 81.00,163.00 L 72.00,188.00 L 72.00,191.00 L 68.00,203.00 L 66.00,218.00 L 65.00,219.00 L 65.00,226.00 L 63.00,234.00 L 63.00,244.00 L 62.00,245.00 L 62.00,257.00 L 61.00,258.00 L 61.00,306.00 L 57.00,310.00 L 55.00,318.00 L 57.00,338.00 L 42.00,365.00 L 37.00,372.00 L 28.00,390.00 L 22.00,410.00 L 22.00,430.00 L 29.00,448.00 L 33.00,453.00 L 42.00,460.00 L 50.00,464.00 L 62.00,467.00 L 71.00,467.00 L 72.00,466.00 L 77.00,466.00 L 85.00,464.00 L 97.00,475.00 L 104.00,479.00 L 122.00,485.00 L 139.00,487.00 L 143.00,489.00 L 148.00,489.00 L 149.00,490.00 L 171.00,491.00 L 172.00,492.00 L 246.00,491.00 L 247.00,490.00 L 257.00,490.00 L 258.00,489.00 L 278.00,489.00 L 279.00,488.00 L 288.00,488.00 L 289.00,487.00 L 301.00,487.00 L 309.00,485.00 L 319.00,485.00 L 320.00,484.00 L 327.00,484.00 L 328.00,483.00 L 336.00,483.00 L 352.00,479.00 L 365.00,472.00 L 370.00,467.00 L 376.00,456.00 L 379.00,445.00 L 379.00,439.00 L 381.00,435.00 L 382.00,416.00 L 383.00,415.00 L 382.00,348.00 L 381.00,347.00 L 381.00,333.00 L 380.00,332.00 L 380.00,318.00 L 379.00,317.00 L 377.00,286.00 L 376.00,285.00 L 376.00,278.00 L 374.00,270.00 L 374.00,262.00 L 373.00,261.00 L 369.00,228.00 L 368.00,227.00 L 367.00,217.00 L 366.00,216.00 L 363.00,197.00 L 361.00,192.00 L 361.00,188.00 L 359.00,184.00 L 356.00,170.00 L 351.00,155.00 L 348.00,150.00 L 346.00,143.00 L 344.00,141.00 L 344.00,139.00 L 335.00,124.00 L 326.00,113.00 L 316.00,104.00 L 306.00,97.00 L 294.00,91.00 L 284.00,88.00 L 280.00,85.00 L 280.00,76.00 L 279.00,75.00 L 279.00,70.00 L 276.00,58.00 L 270.00,46.00 L 261.00,36.00 L 248.00,28.00 L 238.00,25.00 L 223.00,24.00 L 222.00,25.00 L 216.00,25.00 Z" fill="#FFFFFF" fill-rule="evenodd"/><path id="coral" d="M 779.00,386.00 L 788.00,394.00 L 801.00,399.00 L 799.00,405.00 L 792.00,417.00 L 788.00,422.00 L 781.00,426.00 L 778.00,425.00 L 775.00,422.00 L 772.00,413.00 L 775.00,394.00 Z M 794.00,359.00 L 798.00,359.00 L 802.00,363.00 L 805.00,371.00 L 805.00,384.00 L 804.00,385.00 L 797.00,384.00 L 790.00,376.00 L 789.00,365.00 Z M 948.00,357.00 L 950.00,360.00 L 950.00,364.00 L 947.00,370.00 L 936.00,381.00 L 926.00,385.00 L 925.00,384.00 L 926.00,380.00 L 934.00,366.00 L 944.00,357.00 Z M 1102.00,404.00 L 1099.00,400.00 L 1096.00,399.00 L 1092.00,400.00 L 1088.00,406.00 L 1074.00,419.00 L 1065.00,424.00 L 1053.00,427.00 L 1037.00,427.00 L 1036.00,426.00 L 1032.00,426.00 L 1016.00,420.00 L 1002.00,412.00 L 987.00,408.00 L 976.00,409.00 L 969.00,411.00 L 943.00,426.00 L 934.00,427.00 L 929.00,425.00 L 924.00,420.00 L 922.00,416.00 L 922.00,412.00 L 921.00,411.00 L 922.00,400.00 L 936.00,396.00 L 946.00,391.00 L 958.00,380.00 L 964.00,367.00 L 964.00,357.00 L 961.00,350.00 L 955.00,345.00 L 950.00,343.00 L 942.00,343.00 L 934.00,346.00 L 928.00,350.00 L 920.00,359.00 L 913.00,371.00 L 908.00,385.00 L 902.00,387.00 L 895.00,380.00 L 895.00,370.00 L 901.00,355.00 L 900.00,350.00 L 895.00,346.00 L 891.00,346.00 L 885.00,350.00 L 881.00,360.00 L 880.00,366.00 L 872.00,381.00 L 872.00,383.00 L 854.00,418.00 L 852.00,420.00 L 850.00,420.00 L 849.00,419.00 L 849.00,393.00 L 850.00,392.00 L 850.00,383.00 L 851.00,382.00 L 852.00,368.00 L 853.00,367.00 L 853.00,357.00 L 850.00,354.00 L 847.00,353.00 L 842.00,354.00 L 838.00,358.00 L 836.00,365.00 L 836.00,370.00 L 827.00,379.00 L 822.00,382.00 L 820.00,382.00 L 819.00,381.00 L 818.00,365.00 L 812.00,353.00 L 802.00,346.00 L 792.00,345.00 L 784.00,348.00 L 779.00,352.00 L 775.00,359.00 L 774.00,366.00 L 770.00,370.00 L 763.00,383.00 L 758.00,400.00 L 758.00,419.00 L 762.00,430.00 L 768.00,436.00 L 775.00,439.00 L 787.00,439.00 L 795.00,435.00 L 804.00,426.00 L 812.00,412.00 L 816.00,402.00 L 816.00,399.00 L 820.00,396.00 L 825.00,395.00 L 831.00,391.00 L 833.00,391.00 L 834.00,392.00 L 834.00,421.00 L 837.00,434.00 L 842.00,440.00 L 846.00,442.00 L 851.00,442.00 L 855.00,440.00 L 862.00,432.00 L 870.00,419.00 L 882.00,395.00 L 882.00,393.00 L 884.00,391.00 L 886.00,391.00 L 892.00,397.00 L 905.00,401.00 L 906.00,416.00 L 911.00,429.00 L 919.00,437.00 L 927.00,441.00 L 931.00,442.00 L 945.00,441.00 L 957.00,436.00 L 974.00,425.00 L 982.00,423.00 L 988.00,423.00 L 1000.00,427.00 L 1002.00,429.00 L 1004.00,429.00 L 1017.00,436.00 L 1029.00,440.00 L 1040.00,441.00 L 1041.00,442.00 L 1050.00,442.00 L 1051.00,441.00 L 1057.00,441.00 L 1065.00,439.00 L 1081.00,431.00 L 1097.00,416.00 L 1102.00,408.00 Z M 290.00,324.00 L 279.00,324.00 L 271.00,327.00 L 260.00,337.00 L 255.00,345.00 L 253.00,344.00 L 249.00,337.00 L 243.00,331.00 L 231.00,325.00 L 218.00,325.00 L 208.00,330.00 L 201.00,339.00 L 199.00,345.00 L 199.00,353.00 L 198.00,354.00 L 199.00,355.00 L 199.00,361.00 L 202.00,370.00 L 207.00,379.00 L 219.00,394.00 L 236.00,411.00 L 254.00,426.00 L 260.00,424.00 L 287.00,395.00 L 301.00,377.00 L 306.00,368.00 L 310.00,354.00 L 309.00,342.00 L 305.00,334.00 L 299.00,328.00 Z M 1044.00,315.00 L 1051.00,316.00 L 1057.00,322.00 L 1061.00,332.00 L 1062.00,346.00 L 1063.00,348.00 L 1067.00,350.00 L 1070.00,349.00 L 1075.00,342.00 L 1083.00,334.00 L 1092.00,329.00 L 1099.00,330.00 L 1103.00,334.00 L 1104.00,337.00 L 1103.00,345.00 L 1095.00,358.00 L 1081.00,372.00 L 1059.00,390.00 L 1057.00,389.00 L 1041.00,359.00 L 1036.00,343.00 L 1035.00,333.00 L 1036.00,332.00 L 1037.00,323.00 L 1039.00,319.00 Z M 1043.00,303.00 L 1037.00,305.00 L 1033.00,308.00 L 1027.00,318.00 L 1025.00,325.00 L 1025.00,342.00 L 1030.00,360.00 L 1037.00,375.00 L 1050.00,396.00 L 1050.00,401.00 L 1054.00,405.00 L 1059.00,405.00 L 1068.00,396.00 L 1090.00,379.00 L 1106.00,362.00 L 1110.00,356.00 L 1114.00,346.00 L 1114.00,332.00 L 1111.00,326.00 L 1108.00,323.00 L 1100.00,319.00 L 1089.00,319.00 L 1083.00,321.00 L 1073.00,328.00 L 1071.00,328.00 L 1066.00,316.00 L 1060.00,308.00 L 1050.00,303.00 Z M 735.00,299.00 L 727.00,300.00 L 722.00,306.00 L 708.00,339.00 L 698.00,368.00 L 698.00,371.00 L 696.00,375.00 L 695.00,382.00 L 693.00,386.00 L 685.00,417.00 L 685.00,421.00 L 683.00,426.00 L 681.00,441.00 L 679.00,447.00 L 679.00,453.00 L 678.00,454.00 L 678.00,465.00 L 680.00,469.00 L 684.00,472.00 L 695.00,471.00 L 702.00,466.00 L 721.00,456.00 L 742.00,449.00 L 755.00,448.00 L 760.00,443.00 L 760.00,440.00 L 758.00,436.00 L 751.00,434.00 L 746.00,434.00 L 745.00,435.00 L 737.00,435.00 L 724.00,438.00 L 700.00,448.00 L 697.00,447.00 L 701.00,425.00 L 706.00,405.00 L 708.00,401.00 L 709.00,394.00 L 713.00,384.00 L 713.00,381.00 L 726.00,344.00 L 736.00,322.00 L 736.00,320.00 L 740.00,313.00 L 741.00,309.00 L 740.00,303.00 Z M 18.00,99.00 L 18.00,104.00 L 28.00,109.00 L 48.00,115.00 L 51.00,117.00 L 59.00,118.00 L 62.00,114.00 L 59.00,109.00 L 44.00,103.00 L 33.00,100.00 L 30.00,98.00 L 22.00,96.00 Z M 46.00,56.00 L 43.00,60.00 L 44.00,64.00 L 72.00,90.00 L 77.00,90.00 L 80.00,86.00 L 79.00,83.00 L 51.00,56.00 Z M 82.00,17.00 L 78.00,21.00 L 79.00,27.00 L 90.00,50.00 L 97.00,68.00 L 100.00,71.00 L 104.00,71.00 L 107.00,67.00 L 106.00,62.00 L 103.00,57.00 L 103.00,55.00 L 100.00,50.00 L 88.00,20.00 L 86.00,18.00 Z" fill="#FFFFFF" fill-rule="evenodd"/>
</svg>
